<svg xmlns="http://www.w3.org/2000/svg" viewBox="0 0 196.68 98.46">
  <title>bg-code</title>
  <g id="Layer_2" data-name="Layer 2">
    <g id="OBJECTS">
      <g>
        <g>
          <path d="M71,19.65a26.51,26.51,0,0,1,9.51,1.64A20.85,20.85,0,0,1,87.91,26a21.09,21.09,0,0,1,4.78,7.42,26.62,26.62,0,0,1,1.71,9.8,27.2,27.2,0,0,1-1.71,9.9,21.25,21.25,0,0,1-4.78,7.48,20.8,20.8,0,0,1-7.37,4.73A26.08,26.08,0,0,1,71,67a26.44,26.44,0,0,1-9.59-1.66A21.32,21.32,0,0,1,54,60.58a21.09,21.09,0,0,1-4.83-7.48,27.41,27.41,0,0,1-1.7-9.9,26.82,26.82,0,0,1,1.7-9.8A20.93,20.93,0,0,1,54,26a21.38,21.38,0,0,1,7.43-4.69A26.88,26.88,0,0,1,71,19.65Zm0,37.14c3.15,0,5.48-1.11,7-3.34s2.23-5.61,2.23-10.16S79.49,35.37,78,33.15s-3.82-3.32-7-3.32-5.62,1.11-7.13,3.32-2.26,5.6-2.26,10.14.76,7.93,2.26,10.16S67.78,56.79,71,56.79Z" fill="#e83d3d"/>
          <path d="M142.87,0V66.26h-8.5A3.23,3.23,0,0,1,131,64l-1.06-3.5a26.45,26.45,0,0,1-2.87,2.66,18.31,18.31,0,0,1-3.26,2.06,16.91,16.91,0,0,1-3.76,1.33,19.38,19.38,0,0,1-4.36.46,14.18,14.18,0,0,1-6.64-1.59,15.35,15.35,0,0,1-5.27-4.6,23.43,23.43,0,0,1-3.47-7.37,35.86,35.86,0,0,1-1.26-9.94,31.12,31.12,0,0,1,1.41-9.54,23.38,23.38,0,0,1,4-7.61,18.65,18.65,0,0,1,6.22-5,17.65,17.65,0,0,1,8-1.81,15.81,15.81,0,0,1,6,1,16.51,16.51,0,0,1,4.43,2.75V0ZM129.15,32.67a8.8,8.8,0,0,0-3.37-2.42,10.83,10.83,0,0,0-3.8-.68,8.11,8.11,0,0,0-3.5.75,7.17,7.17,0,0,0-2.77,2.41,13.1,13.1,0,0,0-1.84,4.32,27,27,0,0,0-.66,6.42,30.1,30.1,0,0,0,.53,6.11,12.84,12.84,0,0,0,1.48,4,5.79,5.79,0,0,0,2.28,2.19,6.48,6.48,0,0,0,3,.67,11.94,11.94,0,0,0,2.72-.29,9.32,9.32,0,0,0,2.24-.82A8.8,8.8,0,0,0,127.35,54a17.11,17.11,0,0,0,1.8-1.88Z" fill="#e83d3d"/>
        </g>
        <g>
          <path d="M75.2,77.24V98.46h-5v-9H61.63v9h-5V77.24h5v8.87h8.62V77.24Z" fill="#2d2c2c"/>
          <path d="M97.47,81.14h-6V98.46H86.57V81.14h-6v-3.9H97.47Z" fill="#2d2c2c"/>
          <path d="M126.73,77.24V98.46h-4.34V86.26c0-.29,0-.59,0-.92s0-.67.08-1l-5.64,10.91a1.81,1.81,0,0,1-.7.77,1.94,1.94,0,0,1-1,.27h-.67a1.93,1.93,0,0,1-1-.27,1.81,1.81,0,0,1-.7-.77L107.11,84.3c0,.35,0,.7.07,1s0,.64,0,.93v12.2h-4.34V77.24h4.32a1.82,1.82,0,0,1,.43.09,1,1,0,0,1,.34.23,1.77,1.77,0,0,1,.3.43l5.46,10.76c.2.37.38.75.56,1.15s.35.81.52,1.22c.16-.42.34-.84.52-1.25s.37-.79.57-1.16L121.34,78a1.77,1.77,0,0,1,.3-.43,1,1,0,0,1,.34-.23,1.82,1.82,0,0,1,.43-.09h4.32Z" fill="#2d2c2c"/>
          <path d="M146.54,94.53v3.93H133.75V77.24h4.92V94.53Z" fill="#2d2c2c"/>
        </g>
        <polygon points="151.46 52.05 151.46 34 168.82 21.43 177.39 33.27 151.46 52.05" fill="#2d2c2c"/>
        <g>
          <path d="M45.23,63.42v18L5.06,52.39a10.63,10.63,0,0,1-1.47-1.28,10.66,10.66,0,0,1-1-1.07l13.63-7.59Z" fill="#2d2c2c"/>
          <path d="M45.23,3.43V21.49l-29,21L3.59,51.11a10.66,10.66,0,0,1-1-1.07A11.23,11.23,0,0,1,1.87,49,12.25,12.25,0,0,1,5.06,32.53Z" fill="#e83d3d"/>
        </g>
        <g>
          <path d="M151.46,63.42v18l40.16-29.08a10.71,10.71,0,0,0,1.48-1.28,11.92,11.92,0,0,0,1-1.07l-13.63-7.59Z" fill="#2d2c2c"/>
          <path d="M151.46,3.43V21.49l29,21,12.68,8.66a11.92,11.92,0,0,0,1-1.07,11.23,11.23,0,0,0,.76-1.09,12.25,12.25,0,0,0-3.19-16.42Z" fill="#e83d3d"/>
        </g>
      </g>
    </g>
  </g>
</svg>
