<svg xmlns="http://www.w3.org/2000/svg" viewBox="0 0 394.1 457.95">
  <title>contact-us</title>
  <g id="Layer_2" data-name="Layer 2">
    <g id="Floor">
      <ellipse cx="197.05" cy="346.01" rx="197.05" ry="111.94" fill="#f5f5f5"/>
    </g>
    <g id="Shadows">
      <path d="M279.06,416.59,132,331.67a8.5,8.5,0,0,1,0-14.73l14.51-9.15a16.48,16.48,0,0,1,16.47,0L310,392.72a8.5,8.5,0,0,1,0,14.73l-14.51,9.15A16.46,16.46,0,0,1,279.06,416.59Z" fill="#e0e0e0"/>
      <ellipse cx="55.4" cy="320.84" rx="31.92" ry="18.33" fill="#e6e6e6"/>
    </g>
    <g id="Plants">
      <g>
        <g>
          <path d="M331.21,343.37l14,8.05s-7.15-22.47-3.34-45.13c1.44-8.55,4.53-12.81,5.61-15.09s9.45-16.45,2-22.92-24.78,6.55-23.84,41.41A135.37,135.37,0,0,0,331.21,343.37Z" fill="#ba68c8"/>
          <path d="M331.21,343.37l14,8.05s-7.15-22.47-3.34-45.13c1.44-8.55,4.53-12.81,5.61-15.09s9.45-16.45,2-22.92-24.78,6.55-23.84,41.41A135.37,135.37,0,0,0,331.21,343.37Z" opacity="0.5"/>
          <path d="M337.72,347.61a.49.49,0,0,1-.47-.33c-.05-.14-5.4-14.76-5.23-38.27s12.52-36.25,12.64-36.38a.51.51,0,0,1,.71,0,.5.5,0,0,1,0,.71c-.12.12-12.18,12.49-12.35,35.68s5.11,37.77,5.17,37.92a.5.5,0,0,1-.3.64A.47.47,0,0,1,337.72,347.61Z" fill="#fff"/>
        </g>
        <g>
          <path d="M337.05,346.81l19.14,10.95a9.2,9.2,0,0,0,12.22-2.62,10,10,0,0,0,1.51-6.65c-.92-9.94-5.24-12.23.05-16.67s6.67-4.74,6.37-9-3.21-6.11-4.59-7.79-5.2-5.2-2.6-10.4,6.15-10.23.77-12.54c-3.21-1.37-8.56.46-12.08,4.28s-6.42,6.58-9.78,7.49-10.4,1.07-10.1,6.88,1.84,7.8.46,10.4C335.82,326,324.51,328.77,337.05,346.81Z" fill="#ba68c8"/>
          <path d="M346.51,352.72a.51.51,0,0,1-.5-.45c0-.34-2.94-34.66,20.66-57.5a.49.49,0,0,1,.7,0,.5.5,0,0,1,0,.71C344.1,318,347,351.84,347,352.18a.51.51,0,0,1-.45.54Z" fill="#fff"/>
          <path d="M350.3,323.18a.49.49,0,0,1-.5-.45A19.7,19.7,0,0,0,342.57,309a.5.5,0,0,1,.57-.81,20.3,20.3,0,0,1,7.66,14.46.5.5,0,0,1-.46.54Z" fill="#fff"/>
          <path d="M348.67,329.08a.51.51,0,0,1-.33-.13.49.49,0,0,1,0-.7c.24-.28,6.15-6.8,20-5.07a.49.49,0,0,1,.43.56.5.5,0,0,1-.56.43c-13.3-1.67-19.07,4.67-19.13,4.74A.5.5,0,0,1,348.67,329.08Z" fill="#fff"/>
        </g>
      </g>
    </g>
    <g id="Device">
      <g>
        <path d="M274.57,406.44,145.21,331.75c-9.13-5.27-16.53-19.4-16.53-31.57v-277c0-12.17,7.4-17.77,16.53-12.5L274.57,85.35c9.13,5.27,16.53,19.41,16.53,31.58V394C291.1,406.12,283.7,411.71,274.57,406.44Z" fill="#455a64"/>
        <path d="M289.47,76.67,160.1,2C156.2-.27,152.62-.54,149.79.85h0a7.83,7.83,0,0,0-1,.59l-14.5,8.42c2.92-1.74,6.74-1.61,10.93.8L274.57,85.35c9.13,5.27,16.53,19.41,16.53,31.58V394c0,6.43-2.07,11-5.37,13.15L300,398.77h0c3.65-1.94,6-6.69,6-13.5v-277C306,96.08,298.6,81.94,289.47,76.67Z" fill="#37474f"/>
        <path d="M291.1,116.93V394c0,6.43-2.07,11-5.37,13.15L300,398.77h0c3.65-1.94,6-6.69,6-13.5v-277l-14.9,8.65Z" fill="#263238"/>
        <polygon points="306 129.75 291.1 138.35 291.1 145.07 306 136.47 306 129.75" fill="#37474f"/>
        <g>
          <path d="M299.47,174.45h0c-1.33.77-2.41,0-2.41-1.83V158.18a5.76,5.76,0,0,1,2.41-4.61h0c1.33-.77,2.41,0,2.41,1.82v14.45A5.79,5.79,0,0,1,299.47,174.45Z" fill="#37474f"/>
          <path d="M297.06,172.62V158.18a5.76,5.76,0,0,1,2.41-4.61,1.52,1.52,0,0,1,1.52-.14v0l-1.81-.93h0a1.51,1.51,0,0,0-1.56.12,5.78,5.78,0,0,0-2.41,4.61v14.44a2.14,2.14,0,0,0,.82,1.93v0l1.89,1h0A2.1,2.1,0,0,1,297.06,172.62Z" fill="#455a64"/>
        </g>
        <g>
          <path d="M299.47,209.42h0c-1.33.77-2.41,0-2.41-1.82V193.15a5.78,5.78,0,0,1,2.41-4.61h0c1.33-.77,2.41.05,2.41,1.82v14.45A5.78,5.78,0,0,1,299.47,209.42Z" fill="#37474f"/>
          <path d="M297.06,207.6V193.15a5.78,5.78,0,0,1,2.41-4.61,1.54,1.54,0,0,1,1.52-.14v0l-1.81-.93h0a1.51,1.51,0,0,0-1.56.12,5.78,5.78,0,0,0-2.41,4.61v14.45a2.12,2.12,0,0,0,.82,1.92v0l1.89,1v0A2.08,2.08,0,0,1,297.06,207.6Z" fill="#455a64"/>
        </g>
        <path d="M270.08,93.14,142.93,19.72a3.51,3.51,0,0,0-5.26,3V300.18c0,9.26,6.57,20.63,14.59,25.26l124.05,71.62a3.86,3.86,0,0,0,5.8-3.34V114C282.11,106.34,276.69,97,270.08,93.14Z" fill="#ba68c8"/>
        <path d="M270.08,93.14,142.93,19.72a3.51,3.51,0,0,0-5.26,3V300.18c0,9.26,6.57,20.63,14.59,25.26l124.05,71.62a3.86,3.86,0,0,0,5.8-3.34V114C282.11,106.34,276.69,97,270.08,93.14Z" fill="#fff" opacity="0.9"/>
        <polygon points="180.95 38.89 182.92 47.19 225.06 71.48 232.34 67.61 180.95 38.89" fill="#455a64"/>
        <g>
          <path d="M193.34,46.91c0,1.37-1,1.93-2.16,1.24A4.78,4.78,0,0,1,189,44.42c0-1.38,1-1.94,2.16-1.25A4.78,4.78,0,0,1,193.34,46.91Z" fill="#263238"/>
          <path d="M221.73,64.45a1.3,1.3,0,0,1-.66-.17l-21.52-12a1.35,1.35,0,0,1,1.31-2.36l21.53,12a1.35,1.35,0,0,1-.66,2.52Z" fill="#263238"/>
        </g>
      </g>
      <g>
        <path d="M164.33,77.46c-1.31-.75-2.26-.09-2.26,1.58a5.09,5.09,0,0,0,2.26,4.22,2.38,2.38,0,0,0,2.47,0L168.89,87a4.57,4.57,0,0,1-4.75-.23A12.11,12.11,0,0,1,158.36,77c0-3.71,2.49-5,5.92-3a13.65,13.65,0,0,1,4.61,5l-2.09,1.66A7.41,7.41,0,0,0,164.33,77.46Z" fill="#ba68c8"/>
        <path d="M180.92,90c0,3.75-2.53,5-6,3a12.35,12.35,0,0,1-6-10c0-3.74,2.53-5,6-3A12.28,12.28,0,0,1,180.92,90Zm-8.29-4.76A5.45,5.45,0,0,0,175,89.58c1.24.72,2.24,0,2.24-1.71A5.21,5.21,0,0,0,175,83.61C173.71,82.88,172.63,83.5,172.63,85.23Z" fill="#ba68c8"/>
        <path d="M185,86l4.32,9V88.52l3.27,1.89V103l-3-1.75-4.3-8.92v6.44l-3.29-1.9V84.28Z" fill="#ba68c8"/>
        <path d="M203.23,96.58v3.29l-3.12-1.8v9.32l-3.61-2.09V96l-3.1-1.79V90.9Z" fill="#ba68c8"/>
        <path d="M210.27,111.48l-4.1-2.37-.56,1.46-3.7-2.14,4.61-10,3.71,2.14,4.44,15.17-3.85-2.22Zm-.89-3.5-1.12-4.34-1.15,3Z" fill="#ba68c8"/>
        <path d="M220.4,109.84c-1.31-.76-2.26-.1-2.26,1.57a5.07,5.07,0,0,0,2.26,4.22,2.4,2.4,0,0,0,2.48,0L225,119.4a4.57,4.57,0,0,1-4.76-.22,12.12,12.12,0,0,1-5.78-9.85c0-3.71,2.5-5,5.92-3a13.6,13.6,0,0,1,4.62,5L222.88,113A7.53,7.53,0,0,0,220.4,109.84Z" fill="#ba68c8"/>
        <path d="M234.83,114.82v3.29l-3.12-1.79v9.31l-3.61-2.08v-9.32l-3.1-1.79v-3.29Z" fill="#ba68c8"/>
        <path d="M245.5,130.3c.89.52,1.57.12,1.57-1.14v-7.27l3.62,2.09v7.27c0,3.34-2,4.34-5.2,2.52a10.33,10.33,0,0,1-5.29-8.58v-7.26l3.62,2.08v7.27A3.71,3.71,0,0,0,245.5,130.3Z" fill="#ba68c8"/>
        <path d="M256.52,130.35c-.41-.23-.67-.24-.67.13,0,1.59,5.65,3.86,5.65,8.43,0,2.81-2.13,2.82-4.59,1.4a18.19,18.19,0,0,1-5.47-5.18l1.34-2.35a16.38,16.38,0,0,0,4.16,4.36c.53.31.87.31.87-.14,0-1.64-5.66-3.83-5.66-8.25,0-2.52,1.84-3,4.68-1.41a17.3,17.3,0,0,1,4.75,4.24L260.27,134A19.6,19.6,0,0,0,256.52,130.35Z" fill="#ba68c8"/>
      </g>
    </g>
    <g id="Speech_bubble" data-name="Speech bubble">
      <g>
        <path d="M146.14,139.61a25.69,25.69,0,1,0-6.74,5.83l12.52,5.43Z" fill="#ba68c8"/>
        <path d="M146.14,139.61a25.69,25.69,0,1,0-6.74,5.83l12.52,5.43Z" opacity="0.4"/>
        <g>
          <path d="M116.7,122c0-.4-.28-.61-.79-.61a5.72,5.72,0,0,0-3.16,1.49l-1.42-2.76a9.08,9.08,0,0,1,5.17-1.82c2.4,0,4.22,1.25,4.22,3.14,0,1.34-1,2.63-2.28,3.91l-1.79,1.77h4.23v2.94h-9.09v-2.41l4-4.18A2.7,2.7,0,0,0,116.7,122Z" fill="#fff"/>
          <path d="M128.28,118.47l-2.76,6.63h1.13v-2.23h3.48v2.23h1.32v2.73h-1.32v2.24h-3.48v-2.24h-5v-2.48l3-6.88Z" fill="#fff"/>
          <path d="M142.19,124.31v5.76h-3.72v-4.69a1.09,1.09,0,0,0-1.07-1.24c-.73,0-1.19.58-1.19,1.46v4.47h-3.72V117.81h3.72v4.51a3.27,3.27,0,0,1,6,2Z" fill="#fff"/>
        </g>
      </g>
    </g>
    <g id="Character">
      <g>
        <path d="M263.49,217.23V341.48a8,8,0,0,1-12,6.94l-66.92-38.64-11.86-6.84a26.95,26.95,0,0,1-13.43-23.27V155.41a8,8,0,0,1,12-6.94L250.05,194A26.87,26.87,0,0,1,263.49,217.23Z" fill="#ba68c8"/>
        <path d="M263.49,217.23V341.48a8,8,0,0,1-12,6.94l-66.92-38.64-11.86-6.84a26.95,26.95,0,0,1-13.43-23.27V155.41a8,8,0,0,1,12-6.94L250.05,194A26.87,26.87,0,0,1,263.49,217.23Z" fill="#fff" opacity="0.5"/>
        <g>
          <path d="M224.94,290.74s12.53,20.78,3.48,44.22l-43.88-25.18Z" fill="#263238"/>
          <g>
            <circle cx="230.97" cy="195.65" r="14.05" transform="translate(8.56 400.99) rotate(-82.98)" fill="#263238"/>
            <g>
              <path d="M231,156.25s4.31-7,5.63-6.49-.86,7.19-.86,7.19,6.53,1.35,5.31,3-9.18,1.25-9.18,1.25Z" fill="#263238"/>
              <path d="M234.07,174.29c-3,22.54-22,22.54-22,22.54l-39.82-17.51s-3-2.63-3.92-8.68a26.4,26.4,0,0,1,0-7.46s0-.05,0-.07c1.27-9.47,8.36-19.67,23.8-22.8a51.34,51.34,0,0,1,10.28-1,46.83,46.83,0,0,1,5,.25c12,1.17,20.41,6.78,24.42,15.48a28.1,28.1,0,0,1,2,6.16A38.76,38.76,0,0,1,234.07,174.29Z" fill="#263238"/>
            </g>
          </g>
          <g>
            <path d="M138.5,217.89s-14.13-.48-19.57,13.29c0,0,6,4,13.87,0S138.5,217.89,138.5,217.89Z" fill="#ba68c8"/>
            <path d="M138.5,217.89s-14.13-.48-19.57,13.29c0,0,6,4,13.87,0S138.5,217.89,138.5,217.89Z" opacity="0.5"/>
            <path d="M138.1,224.52s-4-17.37-6.11-17.59-2.52,5.31-2.35,8.41l-5-10.75a2.7,2.7,0,0,0-3.76-1.21c-5,2.75-13.77,11.11,4.73,31.78Z" fill="#945959"/>
            <path d="M189.3,212.51l-3-.39a17.18,17.18,0,0,0-16,6.72L152.46,242.6l-14-24.71s-1.68,16.81-19.57,13.29l19.21,32.33a14.79,14.79,0,0,0,24.18,1.77l16.44-20.21Z" fill="#ba68c8"/>
          </g>
          <path d="M227.4,268c-4,10.14-4.44,12.12-2,17.18a65.12,65.12,0,0,1,4,11.65s-18.54,20.78-44.93,13l-11.86-6.84a26.79,26.79,0,0,1-6.58-5.36l3.54-26.87a9.43,9.43,0,0,0-.42-4.22l-3.79-11.1A30.38,30.38,0,0,1,173,223.87l12.74-12.45,33.46,4.22,5,1.44a14.15,14.15,0,0,1,10.11,15.54C232.59,244.47,229.91,261.58,227.4,268Z" fill="#ba68c8"/>
          <path d="M227.4,268c-4,10.14-4.44,12.12-2,17.18a65.12,65.12,0,0,1,4,11.65s-18.54,20.78-44.93,13l-11.86-6.84a26.79,26.79,0,0,1-6.58-5.36l3.54-26.87a9.43,9.43,0,0,0-.42-4.22l-3.79-11.1A30.38,30.38,0,0,1,173,223.87l12.74-12.45,33.46,4.22,5,1.44a14.15,14.15,0,0,1,10.11,15.54C232.59,244.47,229.91,261.58,227.4,268Z" opacity="0.5"/>
          <path d="M207.22,237.7l-6.7-5.71a5.36,5.36,0,0,0-5.23-1l-8.1,2.78-1.09-4.53a5.39,5.39,0,0,0-6.72-3.92l-3.51,1L181.81,215a21.28,21.28,0,0,1,8.59-8.77l2.33-1.29,19.25,1s7.17,3,7.17,9.75L207.22,237.7" fill="#ba68c8"/>
          <g>
            <polygon points="212.06 214.38 192.76 229.42 192.76 181.54 212.06 181.54 212.06 214.38" fill="#945959"/>
            <polygon points="193.06 210.44 187.19 233.78 211.98 214.38 193.06 210.44" fill="#945959"/>
          </g>
          <path d="M192.76,207a33.82,33.82,0,0,0,19.3-18.36v-7.07h-19.3Z" fill="#703838"/>
          <path d="M196.92,146.05c-7.32,0-22.88,4.08-24.68,23.24s-.06,34,9.82,35.44S214.9,199,218,174.2,204.07,146.05,196.92,146.05Z" fill="#945959"/>
          <polygon points="185.4 177.39 185.4 188.69 178.78 186.66 185.4 177.39" fill="#703838"/>
          <g>
            <circle cx="192.76" cy="179.35" r="2.3" fill="#263238"/>
            <path d="M179.92,177.74a2.3,2.3,0,1,1-2.3-2.3A2.3,2.3,0,0,1,179.92,177.74Z" fill="#263238"/>
            <path d="M174.81,173l4.5-2.67s-1.72-1.8-3.44-.72S174.81,173,174.81,173Z" fill="#263238"/>
          </g>
          <path d="M182.29,193.27a9.82,9.82,0,0,0,6.19-1.66s.43,3.26-2.31,3.89S182.29,193.27,182.29,193.27Z" fill="#703838"/>
          <path d="M178.36,152.56s2.75,26.46,38.72,27.28c0,0,10.87-26.28-10.61-34.82S178.36,152.56,178.36,152.56Z" fill="#263238"/>
          <g>
            <g>
              <path d="M227.67,175.88h0l-4.42-2.55h0c-1.68-1-4-.86-6.57.62-5.1,2.95-9.23,10.11-9.23,16,0,2.95,1,5,2.71,6h0l4.34,2.49.25.15.15.08h0c1.64.8,3.83.61,6.24-.78,5.1-2.95,9.24-10.11,9.24-16C230.35,178.92,229.32,176.85,227.67,175.88Z" fill="#ba68c8"/>
              <ellipse cx="221.11" cy="187.18" rx="13.06" ry="7.54" transform="translate(-51.55 285.07) rotate(-60)" fill="#ba68c8"/>
              <ellipse cx="221.11" cy="187.18" rx="13.06" ry="7.54" transform="translate(-51.55 285.07) rotate(-60)" opacity="0.5"/>
              <path d="M229.44,181.43h0l-3-1.75h0c-1.14-.68-2.73-.59-4.49.43a14,14,0,0,0-6.32,11c0,2,.71,3.43,1.86,4.09h0l3,1.71.17.1.1.05h0a4.6,4.6,0,0,0,4.28-.54,14,14,0,0,0,6.32-11C231.28,183.51,230.58,182.1,229.44,181.43Z" fill="#ba68c8"/>
              <path d="M231.28,185.51a14,14,0,0,1-6.32,11c-3.5,2-6.32.38-6.32-3.65A14,14,0,0,1,225,181.86C228.45,179.85,231.28,181.48,231.28,185.51Z" fill="#ba68c8"/>
              <path d="M231.28,185.51a14,14,0,0,1-6.32,11c-3.5,2-6.32.38-6.32-3.65A14,14,0,0,1,225,181.86C228.45,179.85,231.28,181.48,231.28,185.51Z" opacity="0.3"/>
            </g>
            <path d="M213.94,140.88a16.61,16.61,0,0,0-10-3.46h-.87a53.85,53.85,0,0,0-10.93,1.05q1,0,2,0h-2v1.85H194a24.71,24.71,0,0,1,23.87,24.74v7.87a2.22,2.22,0,0,0,2.45,2.21l.23,0,2-.61h0a1.87,1.87,0,0,1-.41.09,2.46,2.46,0,0,0,2.12-2.49v-7.3C224.22,151.56,218.51,144.45,213.94,140.88Z" fill="#ba68c8"/>
            <g>
              <path d="M201.35,204.18a5.61,5.61,0,0,1-2.39-.53l-6.25-2.89a.74.74,0,0,1-.37-1,.75.75,0,0,1,1-.36l6.25,2.89a4.22,4.22,0,0,0,4.82-.91l6-6.2a.75.75,0,0,1,1.08,1l-6,6.21A5.73,5.73,0,0,1,201.35,204.18Z" fill="#ba68c8"/>
              <path d="M201.35,204.18a5.61,5.61,0,0,1-2.39-.53l-6.25-2.89a.74.74,0,0,1-.37-1,.75.75,0,0,1,1-.36l6.25,2.89a4.22,4.22,0,0,0,4.82-.91l6-6.2a.75.75,0,0,1,1.08,1l-6,6.21A5.73,5.73,0,0,1,201.35,204.18Z" opacity="0.5"/>
              <path d="M194.35,198.64a2.92,2.92,0,1,1-2.92-2.92A2.92,2.92,0,0,1,194.35,198.64Z" fill="#ba68c8"/>
              <path d="M194.35,198.64a2.92,2.92,0,1,1-2.92-2.92A2.92,2.92,0,0,1,194.35,198.64Z" opacity="0.5"/>
            </g>
            <path d="M224.22,164.76v7.3a2.46,2.46,0,0,1-2.12,2.49,2.36,2.36,0,0,1-2.61-2.35v-7.44a26.29,26.29,0,0,0-27.36-26.3,53.85,53.85,0,0,1,10.93-1.05h.87a16.61,16.61,0,0,1,10,3.46C218.51,144.45,224.22,151.56,224.22,164.76Z" fill="#ba68c8"/>
            <path d="M224.22,164.76v7.3a2.46,2.46,0,0,1-2.12,2.49,2.36,2.36,0,0,1-2.61-2.35v-7.44a26.29,26.29,0,0,0-27.36-26.3,53.85,53.85,0,0,1,10.93-1.05h.87a16.61,16.61,0,0,1,10,3.46C218.51,144.45,224.22,151.56,224.22,164.76Z" opacity="0.5"/>
          </g>
          <path d="M213,302.34s-4.84,13.35,12.46,19.31c0,0,5.65-8.29,0-15.08S213,302.34,213,302.34Z" fill="#ba68c8"/>
          <path d="M213,302.34s-4.84,13.35,12.46,19.31c0,0,5.65-8.29,0-15.08S213,302.34,213,302.34Z" opacity="0.7"/>
          <path d="M219,302.94s-16.9,6.2-16.81,8.59,7.18.77,7.18.77L206.8,314a15.87,15.87,0,0,0-6.05,7.39h0a2.92,2.92,0,0,0,1.34,3.65l6.42,3.4a3.07,3.07,0,0,0,4.19-1.36h0a6,6,0,0,1,3.51-3c3.49-1.16,10-4.51,12.61-13.64Z" fill="#945959"/>
          <path d="M224.12,217.08s-9,5-4.22,20.18S233.65,276,233.65,276L213,302.34A15.78,15.78,0,0,1,224.09,309a14,14,0,0,1,1.35,12.68l25.66-33a23.26,23.26,0,0,0,3.64-21.83l-11-32.13a26.91,26.91,0,0,0-17-16.81Z" fill="#ba68c8"/>
        </g>
      </g>
    </g>
    <g id="Icons">
      <g>
        <g>
          <g>
            <path d="M72.2,127.41l-39.77-23a3.29,3.29,0,0,0-3.17-.35h0a1.92,1.92,0,0,0-.31.18l-8.65,5.07.06,0c-1.09.62-1.78,2.06-1.78,4.11v44.22c0,3.75,2.27,8.09,5.08,9.71l39.77,23a3.16,3.16,0,0,0,3.5.15l-.07.06,8.59-5.05h0c1.12-.59,1.83-2,1.83-4.15V137.11C77.28,133.37,75,129,72.2,127.41Z" fill="#ba68c8"/>
            <path d="M75.86,131.6a10.06,10.06,0,0,0-3.66-4.19l-39.77-23a3.29,3.29,0,0,0-3.17-.35h0a1.92,1.92,0,0,0-.31.18l-8.65,5.07a3.23,3.23,0,0,1,3.36.24l39.77,23a10.27,10.27,0,0,1,3.75,4.39h0Z" fill="#ba68c8"/>
            <path d="M68.51,186.48c0,2-.64,3.39-1.65,4.05l8.59-5.05h0c1.12-.59,1.83-2,1.83-4.15V137.11a12.47,12.47,0,0,0-1.42-5.51l-8.68,5.34h0a12.45,12.45,0,0,1,1.33,5.32Z" fill="#ba68c8"/>
            <path d="M75.86,131.6a10.06,10.06,0,0,0-3.66-4.19l-39.77-23a3.29,3.29,0,0,0-3.17-.35h0a1.92,1.92,0,0,0-.31.18l-8.65,5.07a3.23,3.23,0,0,1,3.36.24l39.77,23a10.27,10.27,0,0,1,3.75,4.39h0Z" opacity="0.3"/>
            <path d="M68.51,186.48c0,2-.64,3.39-1.65,4.05l8.59-5.05h0c1.12-.59,1.83-2,1.83-4.15V137.11a12.47,12.47,0,0,0-1.42-5.51l-8.68,5.34h0a12.45,12.45,0,0,1,1.33,5.32Z" opacity="0.6"/>
          </g>
          <path d="M56.85,154.94c0,5.72-2.27,7.67-5.67,5.71a8.05,8.05,0,0,1-3.8-5c-1,1.23-2.55,1.31-4.73.05-3.58-2.06-6.4-6.95-6.4-11.78s2.8-6.45,6.4-4.37a11,11,0,0,1,4.26,4.57v-1.88l3.77,2.17v10.36A3,3,0,0,0,52,157.61c1.27.73,2.05-.51,2.05-4.22,0-6.49-4.16-13.37-10.31-16.92s-10.3-1.09-10.3,5.6a21,21,0,0,0,10.19,17.52,11.65,11.65,0,0,0,5.46,1.74l.89,3.46a14.37,14.37,0,0,1-6.35-2.13c-8-4.62-13.29-13.94-13.29-22.38s5.34-11.5,13.4-6.85C51.54,137.92,56.85,146.91,56.85,154.94ZM47,150.13a7.33,7.33,0,0,0-3.47-6.35c-2-1.17-3.43-.35-3.43,2.36a7.42,7.42,0,0,0,3.43,6.4C45.5,153.69,47,152.94,47,150.13Z" fill="#ba68c8"/>
          <g opacity="0.9">
            <path d="M56.85,154.94c0,5.72-2.27,7.67-5.67,5.71a8.05,8.05,0,0,1-3.8-5c-1,1.23-2.55,1.31-4.73.05-3.58-2.06-6.4-6.95-6.4-11.78s2.8-6.45,6.4-4.37a11,11,0,0,1,4.26,4.57v-1.88l3.77,2.17v10.36A3,3,0,0,0,52,157.61c1.27.73,2.05-.51,2.05-4.22,0-6.49-4.16-13.37-10.31-16.92s-10.3-1.09-10.3,5.6a21,21,0,0,0,10.19,17.52,11.65,11.65,0,0,0,5.46,1.74l.89,3.46a14.37,14.37,0,0,1-6.35-2.13c-8-4.62-13.29-13.94-13.29-22.38s5.34-11.5,13.4-6.85C51.54,137.92,56.85,146.91,56.85,154.94ZM47,150.13a7.33,7.33,0,0,0-3.47-6.35c-2-1.17-3.43-.35-3.43,2.36a7.42,7.42,0,0,0,3.43,6.4C45.5,153.69,47,152.94,47,150.13Z" fill="#fff"/>
          </g>
        </g>
        <g>
          <g>
            <path d="M72.2,206.18l-39.77-23a3.35,3.35,0,0,0-3.17-.35h0l-.31.18-8.65,5.07.06,0c-1.09.61-1.78,2.05-1.78,4.11v44.22c0,3.74,2.27,8.09,5.08,9.71l39.77,23a3.18,3.18,0,0,0,3.5.15l-.07.05,8.59-5h0c1.12-.6,1.83-2.06,1.83-4.15V215.89C77.28,212.15,75,207.8,72.2,206.18Z" fill="#ba68c8"/>
            <path d="M75.86,210.37a10.12,10.12,0,0,0-3.66-4.19l-39.77-23a3.35,3.35,0,0,0-3.17-.35h0l-.31.18-8.65,5.07a3.26,3.26,0,0,1,3.36.25l39.77,23a10.3,10.3,0,0,1,3.75,4.38h0Z" fill="#ba68c8"/>
            <path d="M68.51,265.26c0,2-.64,3.39-1.65,4l8.59-5h0c1.12-.6,1.83-2.06,1.83-4.15V215.89a12.51,12.51,0,0,0-1.42-5.52l-8.68,5.34h0A12.49,12.49,0,0,1,68.51,221Z" fill="#ba68c8"/>
            <path d="M75.86,210.37a10.12,10.12,0,0,0-3.66-4.19l-39.77-23a3.35,3.35,0,0,0-3.17-.35h0l-.31.18-8.65,5.07a3.26,3.26,0,0,1,3.36.25l39.77,23a10.3,10.3,0,0,1,3.75,4.38h0Z" opacity="0.3"/>
            <path d="M68.51,265.26c0,2-.64,3.39-1.65,4l8.59-5h0c1.12-.6,1.83-2.06,1.83-4.15V215.89a12.51,12.51,0,0,0-1.42-5.52l-8.68,5.34h0A12.49,12.49,0,0,1,68.51,221Z" opacity="0.6"/>
          </g>
          <g>
            <polygon points="39.09 225.95 29.51 210.37 29.51 231.49 39.09 225.95" fill="#ba68c8"/>
            <polygon points="48.01 230.44 57.58 247.02 57.58 225.94 48.01 230.44" fill="#ba68c8"/>
            <path d="M31,209.69l9.85,16a.69.69,0,0,1,.11.13.61.61,0,0,1,0,.12l2.88,4.69,2.48-1.16a.58.58,0,0,1,.45-.22l10-4.68Z" fill="#ba68c8"/>
            <path d="M46.56,231.13l-2.67,1.25a.84.84,0,0,1-.34.08.82.82,0,0,1-.69-.38l-2.93-4.76-9.62,5.55L56.2,247.82Z" fill="#ba68c8"/>
          </g>
          <g opacity="0.9">
            <polygon points="39.09 225.95 29.51 210.37 29.51 231.49 39.09 225.95" fill="#fff"/>
            <polygon points="48.01 230.44 57.58 247.02 57.58 225.94 48.01 230.44" fill="#fff"/>
            <path d="M31,209.69l9.85,16a.69.69,0,0,1,.11.13.61.61,0,0,1,0,.12l2.88,4.69,2.48-1.16a.58.58,0,0,1,.45-.22l10-4.68Z" fill="#fff"/>
            <path d="M46.56,231.13l-2.67,1.25a.84.84,0,0,1-.34.08.82.82,0,0,1-.69-.38l-2.93-4.76-9.62,5.55L56.2,247.82Z" fill="#fff"/>
          </g>
        </g>
        <g>
          <g>
            <path d="M72.2,48.63l-39.77-23a3.35,3.35,0,0,0-3.17-.35h0a3.14,3.14,0,0,0-.31.18L20.3,30.57l.06,0c-1.09.61-1.78,2.05-1.78,4.11V78.88c0,3.74,2.27,8.09,5.08,9.71l39.77,23a3.18,3.18,0,0,0,3.5.15l-.07,0,8.59-5h0c1.12-.6,1.83-2.06,1.83-4.15V58.34C77.28,54.6,75,50.25,72.2,48.63Z" fill="#ba68c8"/>
            <path d="M75.86,52.82a10.12,10.12,0,0,0-3.66-4.19l-39.77-23a3.35,3.35,0,0,0-3.17-.35h0a3.14,3.14,0,0,0-.31.18L20.3,30.57a3.26,3.26,0,0,1,3.36.25l39.77,23a10.3,10.3,0,0,1,3.75,4.38h0Z" fill="#ba68c8"/>
            <path d="M68.51,107.71c0,2-.64,3.39-1.65,4l8.59-5h0c1.12-.6,1.83-2.06,1.83-4.15V58.34a12.51,12.51,0,0,0-1.42-5.52l-8.68,5.34h0a12.49,12.49,0,0,1,1.33,5.33Z" fill="#ba68c8"/>
            <path d="M75.86,52.82a10.12,10.12,0,0,0-3.66-4.19l-39.77-23a3.35,3.35,0,0,0-3.17-.35h0a3.14,3.14,0,0,0-.31.18L20.3,30.57a3.26,3.26,0,0,1,3.36.25l39.77,23a10.3,10.3,0,0,1,3.75,4.38h0Z" opacity="0.3"/>
            <path d="M68.51,107.71c0,2-.64,3.39-1.65,4l8.59-5h0c1.12-.6,1.83-2.06,1.83-4.15V58.34a12.51,12.51,0,0,0-1.42-5.52l-8.68,5.34h0a12.49,12.49,0,0,1,1.33,5.33Z" opacity="0.6"/>
          </g>
          <g>
            <path d="M55.5,88.63,50.9,81.1a3.92,3.92,0,0,0-2.41-2c-.74-.16-1.48-.32-2.24-.55A1.35,1.35,0,0,1,45.6,78a63.3,63.3,0,0,1-5.93-13.61.73.73,0,0,1,.08-.6,16.64,16.64,0,0,1,1.48-1.32c.62-.52.73-1.4.38-2.65-.74-2.67-1.45-5.34-2.19-8a4.38,4.38,0,0,0-2.86-3.33,8.09,8.09,0,0,0-4.9.18c-.61.24-.93.79-.93,1.73.25,1.84.42,3.64.77,5.5Q35.21,76,49.31,92.92a2.84,2.84,0,0,0,2.22,1.27,6.66,6.66,0,0,0,4.23-1.62C56.65,91.78,56.56,90.36,55.5,88.63Z" fill="#ba68c8"/>
            <path d="M55.38,75A21.28,21.28,0,0,0,53,66.79a24.58,24.58,0,0,0-3.74-5.5c-.4-.44-.73-.59-.93-.25s0,.8.38,1.23l.39.45a21,21,0,0,1,5,11.33,4,4,0,0,0,.09.91,2.31,2.31,0,0,0,.59.9c.21.15.45,0,.62,0C55.39,75.46,55.4,75.25,55.38,75Z" fill="#ba68c8"/>
            <path d="M46.32,66.83a8.4,8.4,0,0,1,2.17,5,3,3,0,0,0,.31.8c.61.51.91.34.91-.29a11.09,11.09,0,0,0-2.81-6.42c-.38-.39-.69-.5-.87-.18A1.05,1.05,0,0,0,46.32,66.83Z" fill="#ba68c8"/>
          </g>
          <g opacity="0.9">
            <g>
              <path d="M55.5,88.63,50.9,81.1a3.92,3.92,0,0,0-2.41-2c-.74-.16-1.48-.32-2.24-.55A1.35,1.35,0,0,1,45.6,78a63.3,63.3,0,0,1-5.93-13.61.73.73,0,0,1,.08-.6,16.64,16.64,0,0,1,1.48-1.32c.62-.52.73-1.4.38-2.65-.74-2.67-1.45-5.34-2.19-8a4.38,4.38,0,0,0-2.86-3.33,8.09,8.09,0,0,0-4.9.18c-.61.24-.93.79-.93,1.73.25,1.84.42,3.64.77,5.5Q35.21,76,49.31,92.92a2.84,2.84,0,0,0,2.22,1.27,6.66,6.66,0,0,0,4.23-1.62C56.65,91.78,56.56,90.36,55.5,88.63Z" fill="#fff"/>
              <path d="M55.38,75A21.28,21.28,0,0,0,53,66.79a24.58,24.58,0,0,0-3.74-5.5c-.4-.44-.73-.59-.93-.25s0,.8.38,1.23l.39.45a21,21,0,0,1,5,11.33,4,4,0,0,0,.09.91,2.31,2.31,0,0,0,.59.9c.21.15.45,0,.62,0C55.39,75.46,55.4,75.25,55.38,75Z" fill="#fff"/>
              <path d="M46.32,66.83a8.4,8.4,0,0,1,2.17,5,3,3,0,0,0,.31.8c.61.51.91.34.91-.29a11.09,11.09,0,0,0-2.81-6.42c-.38-.39-.69-.5-.87-.18A1.05,1.05,0,0,0,46.32,66.83Z" fill="#fff"/>
            </g>
          </g>
        </g>
      </g>
    </g>
    <g id="Clouds">
      <path d="M276.25,22.15l9.37,5.33V24.16c0-.24,0-.47,0-.7s0-.45,0-.67v-.08h0c.34-4.4,3.67-6.08,7.73-3.74A15.18,15.18,0,0,1,298,23.41c.91-6,5.78-8.13,11.67-4.73,6.54,3.78,11.84,13,11.84,20.51V46.3a3.24,3.24,0,0,0,1.59,2.78l5.52,3.24a7.93,7.93,0,0,1,3.92,6.85A3.27,3.27,0,0,1,327.61,62L276.39,32.42a9,9,0,0,1-4.48-7.76A2.9,2.9,0,0,1,276.25,22.15Z" fill="#e6e6e6"/>
      <path d="M347.68,20.76l6.81,3.88V22.23c0-.18,0-.35,0-.52s0-.32,0-.48v-.06h0c.25-3.2,2.67-4.42,5.63-2.72a11,11,0,0,1,3.35,3.23c.67-4.34,4.21-5.91,8.49-3.44,4.76,2.75,8.61,9.43,8.61,14.92v5.16a2.34,2.34,0,0,0,1.16,2l4,2.35a5.78,5.78,0,0,1,2.85,5A2.38,2.38,0,0,1,385,49.75L347.78,28.23a6.51,6.51,0,0,1-3.25-5.64A2.11,2.11,0,0,1,347.68,20.76Z" fill="#e6e6e6"/>
    </g>
  </g>
</svg>
