<svg xmlns="http://www.w3.org/2000/svg" xmlns:xlink="http://www.w3.org/1999/xlink" viewBox="0 0 1063.69 1542.96">
  <defs>
    <linearGradient id="linear-gradient" x1="194.78" y1="81.71" x2="337.01" y2="516.16" gradientUnits="userSpaceOnUse">
      <stop offset="0" stop-color="#fd90da"/>
      <stop offset="1" stop-color="#8e6dfd"/>
    </linearGradient>
    <linearGradient id="linear-gradient-2" x1="620.45" y1="232.69" x2="680.35" y2="88.89" gradientUnits="userSpaceOnUse">
      <stop offset="0" stop-color="#6d6afe"/>
      <stop offset="1" stop-color="#3fb0f7"/>
    </linearGradient>
    <linearGradient id="linear-gradient-3" x1="697.01" y1="588.38" x2="486.45" y2="1314.09" gradientUnits="userSpaceOnUse">
      <stop offset="0" stop-color="#d1e8ff"/>
      <stop offset="1" stop-color="#eaefff"/>
    </linearGradient>
    <linearGradient id="linear-gradient-4" x1="480.33" y1="950.81" x2="929.06" y2="610.11" xlink:href="#linear-gradient-2"/>
    <linearGradient id="linear-gradient-5" x1="548.25" y1="668.4" x2="413.93" y2="331.91" gradientUnits="userSpaceOnUse">
      <stop offset="0" stop-color="#965cf2"/>
      <stop offset="1" stop-color="#ff8adc"/>
    </linearGradient>
    <linearGradient id="linear-gradient-6" x1="507.48" y1="464.69" x2="396.05" y2="591.6" gradientUnits="userSpaceOnUse">
      <stop offset="0" stop-color="#1c8ef4"/>
      <stop offset="1" stop-color="#00cfdd"/>
    </linearGradient>
    <linearGradient id="linear-gradient-7" x1="834.01" y1="692.17" x2="769.9" y2="493.1" xlink:href="#linear-gradient-5"/>
    <linearGradient id="linear-gradient-8" x1="869.34" y1="558.74" x2="812.07" y2="652.82" xlink:href="#linear-gradient"/>
    <linearGradient id="linear-gradient-9" x1="746.79" y1="806.33" x2="774.94" y2="722.05" xlink:href="#linear-gradient-5"/>
    <linearGradient id="linear-gradient-10" x1="679.26" y1="796.66" x2="738.49" y2="1122.96" xlink:href="#linear-gradient"/>
    <linearGradient id="linear-gradient-11" x1="784.2" y1="908.67" x2="748.15" y2="1190.75" xlink:href="#linear-gradient-3"/>
    <linearGradient id="linear-gradient-12" x1="620.21" y1="947.36" x2="650.79" y2="909.91" xlink:href="#linear-gradient-2"/>
    <linearGradient id="linear-gradient-13" x1="418.7" y1="957.77" x2="319.87" y2="684.54" xlink:href="#linear-gradient-5"/>
    <linearGradient id="linear-gradient-14" x1="390.38" y1="779.33" x2="325.69" y2="895.6" xlink:href="#linear-gradient"/>
    <linearGradient id="linear-gradient-15" x1="638.75" y1="1268.39" x2="-17.16" y2="892.85" xlink:href="#linear-gradient-2"/>
    <linearGradient id="linear-gradient-16" x1="609" y1="1413.23" x2="597.46" y2="1122.46" xlink:href="#linear-gradient-3"/>
    <linearGradient id="linear-gradient-17" x1="608.83" y1="1183.9" x2="570.51" y2="1294.52" xlink:href="#linear-gradient-3"/>
    <linearGradient id="linear-gradient-18" x1="596.09" y1="1197.56" x2="568.97" y2="1255.05" xlink:href="#linear-gradient-6"/>
    <linearGradient id="linear-gradient-19" x1="858.41" y1="310.56" x2="982.85" y2="571.12" xlink:href="#linear-gradient"/>
    <linearGradient id="linear-gradient-20" x1="378.74" y1="719.05" x2="398.16" y2="619.78" xlink:href="#linear-gradient-5"/>
    <linearGradient id="linear-gradient-21" x1="347.33" y1="650.61" x2="365.86" y2="709.93" xlink:href="#linear-gradient-2"/>
    <linearGradient id="linear-gradient-22" x1="234.96" y1="564.48" x2="264.43" y2="522.36" gradientUnits="userSpaceOnUse">
      <stop offset="0" stop-color="#ff8a78"/>
      <stop offset="1" stop-color="#ffa799"/>
    </linearGradient>
    <linearGradient id="linear-gradient-23" x1="160.64" y1="678.28" x2="284.29" y2="584.57" gradientUnits="userSpaceOnUse">
      <stop offset="0" stop-color="#ff66bc"/>
      <stop offset="0.56" stop-color="#ff8adc"/>
      <stop offset="1" stop-color="#ffbba8"/>
    </linearGradient>
    <linearGradient id="linear-gradient-24" x1="94.68" y1="1388.55" x2="135.3" y2="1388.55" xlink:href="#linear-gradient-22"/>
    <linearGradient id="linear-gradient-25" x1="156.72" y1="1014.27" x2="72.63" y2="1284.19" gradientUnits="userSpaceOnUse">
      <stop offset="0" stop-color="#3e4795"/>
      <stop offset="1" stop-color="#273088"/>
    </linearGradient>
    <linearGradient id="linear-gradient-26" x1="133.5" y1="1368.03" x2="98.86" y2="1382.58" xlink:href="#linear-gradient-25"/>
    <linearGradient id="linear-gradient-27" x1="127.26" y1="1345.54" x2="180.16" y2="1345.54" xlink:href="#linear-gradient-22"/>
    <linearGradient id="linear-gradient-28" x1="210.09" y1="1042.61" x2="128.76" y2="1223.89" xlink:href="#linear-gradient-25"/>
    <linearGradient id="linear-gradient-29" x1="166.2" y1="1326.88" x2="155.74" y2="1337.26" xlink:href="#linear-gradient-25"/>
    <linearGradient id="linear-gradient-30" x1="155.14" y1="805.68" x2="193.65" y2="954.58" xlink:href="#linear-gradient-23"/>
    <linearGradient id="linear-gradient-31" x1="383.46" y1="742.12" x2="410.94" y2="705.81" xlink:href="#linear-gradient-22"/>
    <linearGradient id="linear-gradient-32" x1="267.68" y1="818.06" x2="403.26" y2="759.9" xlink:href="#linear-gradient-23"/>
    <linearGradient id="linear-gradient-33" x1="159.38" y1="701.67" x2="169.37" y2="731.27" xlink:href="#linear-gradient-22"/>
    <linearGradient id="linear-gradient-34" x1="161.17" y1="626.36" x2="98.1" y2="821.53" gradientUnits="userSpaceOnUse">
      <stop offset="0" stop-color="#5a2d68"/>
      <stop offset="1" stop-color="#22043d"/>
    </linearGradient>
    <linearGradient id="linear-gradient-35" x1="139.71" y1="490.8" x2="124.24" y2="670.92" gradientUnits="userSpaceOnUse">
      <stop offset="0" stop-color="#8a4791"/>
      <stop offset="1"/>
    </linearGradient>
    <linearGradient id="linear-gradient-36" x1="194" y1="495.46" x2="178.52" y2="675.58" xlink:href="#linear-gradient-35"/>
  </defs>
  <title>Design</title>
  <g style="isolation: isolate">
    <g id="Layer_2" data-name="Layer 2">
      <g id="Layer_1-2" data-name="Layer 1">
        <g>
          <g>
            <path d="M130.67,620.76a4.56,4.56,0,1,0-9.11.41c.27,6.18.77,12.34,1.45,18.49a4.57,4.57,0,0,0,8.9.81,4.38,4.38,0,0,0,.17-1.83c-.67-5.94-1.15-11.92-1.41-17.88ZM468.59,144.18a4.56,4.56,0,0,0,4.59-7.88l-15.77-9.18A4.57,4.57,0,0,0,451.6,134a4.8,4.8,0,0,0,1.22,1l15.77,9.18Zm-39.42-23a4.56,4.56,0,0,0,5.8-6.85,4.45,4.45,0,0,0-1.21-1L418,104.17a4.56,4.56,0,1,0-4.59,7.88l15.77,9.18Zm-39.42-23a4.56,4.56,0,0,0,5.81-6.85,4.84,4.84,0,0,0-1.22-1l-15.77-9.18a4.56,4.56,0,0,0-5.8,6.86,4.76,4.76,0,0,0,1.21,1l15.77,9.18Zm-39.42-23a4.56,4.56,0,0,0,5.81-6.85,4.84,4.84,0,0,0-1.22-1l-15.76-9.18a4.57,4.57,0,0,0-5.81,6.86,4.8,4.8,0,0,0,1.22,1l15.76,9.18ZM310.92,52.38a4.56,4.56,0,0,0,5.8-6.85,4.79,4.79,0,0,0-1.21-1l-15.77-9.18a4.57,4.57,0,0,0-5.81,6.86,4.84,4.84,0,0,0,1.22,1l15.77,9.17ZM271.5,29.44a4.57,4.57,0,0,0,5.81-6.86,5.06,5.06,0,0,0-1.22-1l-3.34-1.94,0,0c-4.26-2.45-8.67-4.83-13.12-6.9a4.57,4.57,0,0,0-5.07,7.45,4.87,4.87,0,0,0,1.21.82c4.25,2,8.34,4.19,12.44,6.54h0l3.27,1.91ZM231,11.93c5.38,1.35,8.1-6.43,2.8-8.66-.2-.07-.38-.14-.58-.19A117,117,0,0,0,214.38,0a4.56,4.56,0,0,0-.6,9.1A112.19,112.19,0,0,1,231,11.93Zm-42.77-.57a4.56,4.56,0,0,0-2-8.89,70.08,70.08,0,0,0-18.33,7.63,4.56,4.56,0,0,0,3.81,8.23,5.22,5.22,0,0,0,.87-.4,64.11,64.11,0,0,1,15.66-6.57ZM153.59,34.92c3.19-4.16-2.29-9.72-6.58-6.23a4.58,4.58,0,0,0-.71.75,89.32,89.32,0,0,0-9.85,16.46c-2.21,4.65,4.09,8.93,7.62,4.85a4.41,4.41,0,0,0,.66-1,82.14,82.14,0,0,1,8.86-14.8Zm-16.8,39.77c1-5.35-6.57-7.65-8.7-2.6a5,5,0,0,0-.25.86A146.19,146.19,0,0,0,125.4,91.6a4.56,4.56,0,1,0,9.1.6,141.47,141.47,0,0,1,2.29-17.51ZM134,119.29a4.56,4.56,0,0,0-9-1.12,5.3,5.3,0,0,0-.13,1.06l-.12,18.24a4.56,4.56,0,0,0,9,1.12,4.66,4.66,0,0,0,.13-1.06l.12-18.24Zm-.3,45.61a4.56,4.56,0,0,0-9-1.12,5.3,5.3,0,0,0-.13,1.06l-.12,18.24a4.57,4.57,0,0,0,9,1.12,5.3,5.3,0,0,0,.13-1.06l.11-18.24Zm-.29,45.61a4.56,4.56,0,0,0-9-1.12,4.66,4.66,0,0,0-.13,1.06l-.12,18.24a4.56,4.56,0,0,0,9,1.12,5.3,5.3,0,0,0,.13-1.06l.12-18.24Zm-.3,45.61a4.56,4.56,0,0,0-9-1.12,5.3,5.3,0,0,0-.13,1.06l-.12,18.25a4.56,4.56,0,0,0,9,1.11,4.66,4.66,0,0,0,.13-1.06l.12-18.24Zm-.29,45.61a4.57,4.57,0,0,0-9-1.11,5.2,5.2,0,0,0-.12,1.05l-.12,18.25a4.56,4.56,0,0,0,9,1.11,5.2,5.2,0,0,0,.13-1l.12-18.25Zm-.3,45.61a4.56,4.56,0,0,0-9-1.11,5.29,5.29,0,0,0-.13,1l-.12,18.25a4.56,4.56,0,0,0,9.12.06l.12-18.25ZM132.2,393a4.56,4.56,0,0,0-9-1.11,4.66,4.66,0,0,0-.13,1.06L123,411.14a4.56,4.56,0,0,0,9,1.12,5.3,5.3,0,0,0,.13-1.06L132.2,393Zm-.3,45.62a4.56,4.56,0,0,0-9-1.12,5.3,5.3,0,0,0-.13,1.06l-.12,18.24a4.56,4.56,0,0,0,9,1.12,4.66,4.66,0,0,0,.13-1.06l.12-18.24Zm-.29,45.61a4.56,4.56,0,0,0-9-1.12,4.66,4.66,0,0,0-.13,1.06l-.12,18.24a4.56,4.56,0,0,0,9,1.12,5.3,5.3,0,0,0,.13-1.06l.12-18.24Zm-.3,45.6a4.56,4.56,0,0,0-9-1.11,5.3,5.3,0,0,0-.13,1.06L122.07,548a4.57,4.57,0,0,0,9,1.12,5.3,5.3,0,0,0,.12-1.06l.12-18.25ZM131,575.39a4.56,4.56,0,0,0-9-1.11,4.64,4.64,0,0,0-.13,1.05l-.12,18.25a4.56,4.56,0,0,0,9,1.11,5.2,5.2,0,0,0,.13-1.05l.12-18.25Zm4.28,90a4.56,4.56,0,1,0-8.93,1.83q1.84,9.09,4.32,18a4.56,4.56,0,0,0,8.91-.58,4.38,4.38,0,0,0-.12-1.84c-1.58-5.76-3-11.59-4.18-17.44Zm12.52,43c-1.57-4.47-8.57-3.69-8.83,1.47a4.75,4.75,0,0,0,.29,1.76c2.18,5.79,4.53,11.47,7,17.13,2.6,5.47,10.67,1.83,8.34-3.71s-4.71-11.08-6.8-16.65Zm18.7,40.87a4.56,4.56,0,0,0-8,4.38q4.41,8.13,9.23,16a4.56,4.56,0,1,0,7.77-4.78q-4.71-7.67-9-15.6Zm24,38c-2.81-4-9.4-1.12-8.07,3.93a4.6,4.6,0,0,0,.71,1.46c3.62,5,7.41,9.88,11.32,14.64a4.56,4.56,0,0,0,7-5.8c-3.8-4.61-7.49-9.4-11-14.23Zm29,34.29A4.56,4.56,0,0,0,213,828c4.41,4.49,8.94,8.48,13.45,12.79a4.56,4.56,0,1,0,6-6.84Q225.81,828,219.52,821.59Z" fill-rule="evenodd" fill="url(#linear-gradient)"/>
            <g>
              <g>
                <path d="M558.86,79.4c12.79,7.08,20.26,15.35,28.57,27.15-.1-2.06-.2,5.5-.14-6.18s-6.63-30.56,2.51-40c3.62-3.75,21.26-10.63,25.5-11.72,8.13-2.09,17.55-.68,27.62,4.82,15.31,8.37,29.16,24.67,39.22,44.26s16.35,52.34,16.34,64.16-.07,4.08-.18,6.07c8.52-2.56,16.17-2.53,29.32,4.75s29.73,25.24,40,45.18,16.78,43.42,16.83,65.24c0,17-3.85,30.57-10.46,39.94s-19.54,15-28.66,18c-26.17,9.09-76.63-44-103.25-59l-84.32-47.7c-15.24-8.62-28.89-25.05-38.68-44.67S503.44,147.31,503.64,126c.12-12.43-9-31.07,2.79-40C524.7,72.17,544.22,71.3,558.86,79.4Z" fill="#d0e7ff" fill-rule="evenodd"/>
                <path d="M544.05,85.83c12.8,7.08,20.27,15.35,28.58,27.15-.1-2.06-.2,5.5-.14-6.18s6.4-37.21,16.44-45.69,23.88-9.59,39.19-1.22,29.16,24.67,39.22,44.26,16.35,52.34,16.34,64.16-.06,4.08-.18,6.07c8.52-2.56,16.17-2.53,29.32,4.75s29.73,25.23,40,45.18,16.78,43.32,16.83,65.24-6.34,38.24-16.65,46.83-24.53,9.38-40.19.51l-85.53-48.4L543,240.79c-15.24-8.62-28.89-25-38.68-44.67s-15.65-42.38-15.45-63.65S495.27,95.4,505.23,87,531.26,78.75,544.05,85.83Z" fill-rule="evenodd" fill="url(#linear-gradient-2)"/>
              </g>
              <g>
                <polygon points="573.59 191.2 547.37 176.07 588.61 247.5 630.11 223.84 603.9 208.7 603.98 141.45 573.67 123.95 573.59 191.2" fill="#fff" fill-rule="evenodd"/>
                <polygon points="664.46 220.34 690.68 235.47 649.44 164.05 607.94 187.7 634.15 202.84 634.07 270.09 664.38 287.59 664.46 220.34" fill="#fff" fill-rule="evenodd"/>
              </g>
            </g>
            <path d="M885.37,1480.08l-427.26-244c-15.86-7.25-39.16-14.08-54.71-4.61l-39.79,24.25c-8,4.88-34.33,21.06-16.73,30.64,51.8,28.16,382.78,221.55,435.38,250.16,10,5.41,24.5,7.37,39.78,6.1s31-5.38,43.08-12.83L881,1520c11.24-6.93,17.46-14.5,18.06-21.76C899.66,1491.1,895.1,1484.52,885.37,1480.08Z" fill="#9e9bf5" fill-rule="evenodd" opacity="0.5" style="mix-blend-mode: multiply"/>
            <g>
              <g>
                <path d="M881.47,1447.53c-.06,20.8-7.47,35.44-19.33,42.33l-18.81,11.31c-64.54-27.54-40.59-354.59-44.52-447.57l19.82-488c-16.66-29.11-80.76-54.52-65.8-114L563.67,363.12c-8.39-5.71-229.13-133.55-189.51-157.52,6.63-4,13.19-8,19.74-11.85,14.62-8.65,33.27-3.3,47,4.6h0L817.24,414.23c37,21.29,65.92,72.79,65.81,114Z" fill-rule="evenodd" fill="url(#linear-gradient-3)"/>
                <path d="M354.93,247.9C355,227.52,362.05,213,373.49,206c12.05-7.43,29-6.62,47.67,4.18L797.54,426c36.43,21,65.92,72.11,65.8,114l-1.57,919.32c-.12,41.86-29.8,58.78-66.24,37.75L419.16,1281.21c-36.47-21.06-65.92-72.12-65.81-114Z" fill="#fff" fill-rule="evenodd"/>
                <path d="M354.93,247.9C355,227.52,362.05,213,373.49,206c12.05-7.43,29-6.62,47.67,4.18L797.54,426c36.43,21,65.92,72.11,65.8,114l-1.57,919.32c-.12,41.86-29.8,58.78-66.24,37.75L419.16,1281.21c-36.47-21.06-65.92-72.12-65.81-114Z" fill-rule="evenodd" fill="url(#linear-gradient-4)"/>
              </g>
              <g>
                <path d="M810.79,502.73c9.86,5.69,17.88,1.12,17.92-10.21s-7.94-25.14-17.8-30.84S793,460.56,793,471.89,800.93,497,810.79,502.73Z" fill="#485af4" fill-rule="evenodd"/>
                <path d="M525,318.5c0-3.09,2.2-4.3,4.89-2.71C569,337.89,633.11,374,672.22,396.07a10.94,10.94,0,0,1,4.85,8.49v6.11c0,3.08-2.2,4.3-4.88,2.7-39.12-22.1-103.21-58.18-142.32-80.28a10.89,10.89,0,0,1-4.86-8.48Z" fill="#485af4" fill-rule="evenodd"/>
              </g>
            </g>
            <g>
              <path d="M356.07,352,634.81,501.24c25,14.46,37.61,58.13,37.53,86.9l-1.08,144.44c-.08,28.77-20.49,40.4-45.53,25.95L355,600.89Z" fill-rule="evenodd" opacity="0.5" fill="url(#linear-gradient-5)" style="mix-blend-mode: multiply"/>
              <path d="M272,334.28c0-9.68-3.39-15.68.76-21,2.64-3.37,11.82-7.45,15.71-8.79,7.52-2.61,17.07-1.26,27.45,4.73L616,484c24.15,13.95,43.71,47.82,43.63,75.58l-1,139.34c0,8.6-1.83,19.62-8.43,25.67-4.7,4.3-12.94,8.61-19.07,9.11-6.29.51-8.72-5.3-16.43-9.75L314.56,549.2c-24.19-14-43.72-47.82-43.64-75.58Z" fill="#f2f4ff" fill-rule="evenodd"/>
              <path d="M265,338.4c.08-27.76,19.74-39,43.92-25L609,488.11c24.16,13.95,43.71,47.82,43.64,75.58l-1,139.34c-.08,27.76-19.77,39-43.93,25L307.56,553.32c-24.18-14-43.71-47.83-43.63-75.59Z" fill-rule="evenodd" fill="url(#linear-gradient-6)"/>
              <g>
                <path d="M404,466.15c0-7.41,5.26-10.32,11.72-6.48L611.26,570.6c6.45,3.83,11.67,13,11.65,20.36v14.66c0,7.41-5.28,10.32-11.73,6.48L415.61,501.17c-6.45-3.83-11.67-12.95-11.64-20.36Z" fill="#fff" fill-rule="evenodd" opacity="0.2"/>
                <path d="M404,520.06c0-4.37,3.11-6.09,6.92-3.83l115.49,65.51a15.46,15.46,0,0,1,6.87,12v8.66c0,4.37-3.11,6.09-6.92,3.83L410.84,540.74a15.47,15.47,0,0,1-6.88-12Z" fill="#fff" fill-rule="evenodd" opacity="0.2"/>
              </g>
              <path d="M336,476.58c-12.06-7-22.57-23.41-23.49-36.73s8.09-18.47,20.15-11.5,22.57,23.42,23.49,36.73-8.1,18.46-20.15,11.5Zm44.81-4.14L373,467.91a84.93,84.93,0,0,0-8.13-22.28l5.12-2.92a126.22,126.22,0,0,0-9.91-15.49L355,430.14A90.78,90.78,0,0,0,337.87,413l-.6-8.67q-3.22-2.32-6.54-4.25a65.85,65.85,0,0,0-6.48-3.28l.6,8.67c-6-2.41-11.48-3-16-2l-6-9.34a19.32,19.32,0,0,0-8.5,4.85l6,9.33c-3.09,3.33-5.06,8.18-5.6,14.33l-7.84-4.53a53.71,53.71,0,0,0,.05,6.93,68,68,0,0,0,.95,7.46l7.84,4.53a85.36,85.36,0,0,0,8.13,22.27l-5.12,2.92a127.54,127.54,0,0,0,9.91,15.5l5.13-2.93A90.8,90.8,0,0,0,330.84,492l.6,8.66a77,77,0,0,0,6.55,4.26,62.29,62.29,0,0,0,6.47,3.26l-.6-8.66c6,2.42,11.48,3,16,2l6,9.34a19.42,19.42,0,0,0,8.5-4.85l-6-9.34c3.09-3.33,5.06-8.17,5.6-14.33l7.84,4.53a53.7,53.7,0,0,0,0-6.93A67.78,67.78,0,0,0,380.84,472.44Z" fill="#fff" fill-rule="evenodd"/>
            </g>
            <g>
              <path d="M727.49,536.33c.09-32.07,22.8-45.05,50.73-28.92l102.4,58.13,2,180.68L863,752.47l-86.26-49c-27.93-16.13-50.49-55.24-50.4-87.3Z" fill-rule="evenodd" opacity="0.5" fill="url(#linear-gradient-7)" style="mix-blend-mode: multiply"/>
              <g>
                <path d="M745.11,533.34c0-9.68-2.23-15.71,1.95-21,3.2-4,10.63-7.45,14.51-8.79,7.52-2.61,17.07-1.26,27.45,4.73l95.88,54.42c24.15,13.95,43.71,47.82,43.63,75.58l-1,69.16c0,8.61-1.83,19.63-8.43,25.67-4.7,4.3-12.94,8.61-19.07,9.11-6.29.51-8.72-5.3-16.43-9.75L787.7,678.08c-24.19-14-43.72-47.82-43.64-75.58Z" fill="#f2f4ff" fill-rule="evenodd"/>
                <path d="M738.11,537.46c.08-27.76,19.74-39,43.92-25l95.87,54.41c24.16,13.95,43.71,47.82,43.64,75.59l-1,69.15c-.07,27.76-19.76,39-43.92,25L780.7,682.2c-24.18-14-43.71-47.83-43.63-75.59Z" fill-rule="evenodd" fill="url(#linear-gradient-8)"/>
                <g>
                  <polygon points="848.95 603.49 904.38 663.14 904.34 678.34 848.76 674.03 848.8 656.1 887.64 660.95 848.9 621.34 848.95 603.49" fill="#fff" fill-rule="evenodd"/>
                  <path d="M840.85,586.81a9.26,9.26,0,0,1,1.48,5.05,31,31,0,0,1-1.22,6.46l-15.68,64.19c-.5,2.15-1,3.78-1.35,5a3.34,3.34,0,0,1-1.83,2.24c-.76.36-1.89.11-3.43-.77-3.71-2.14-5.59-5.18-5.58-8.86a41.67,41.67,0,0,1,1.13-6.69L830,589.15c.79-3.41,1.58-5.61,2.34-6.63s2.18-.92,4.27.29A11.45,11.45,0,0,1,840.85,586.81Z" fill="#fff" fill-rule="evenodd"/>
                  <polygon points="751.1 589.86 751.14 574.49 806.74 578.88 806.69 596.97 767.99 591.79 806.6 631.65 806.54 649.58 751.1 589.86" fill="#fff" fill-rule="evenodd"/>
                </g>
              </g>
            </g>
            <g>
              <path d="M760.72,843.74c-32.77-18.94-61.35-63.62-63.86-99.83s22-50.2,54.79-31.25S813,776.31,815.51,812.5,793.48,862.68,760.72,843.74Z" fill-rule="evenodd" opacity="0.5" fill="url(#linear-gradient-9)" style="mix-blend-mode: multiply"/>
              <g>
                <path d="M701.62,716.29c3.46-5.84,14.84-10.46,21.57-11.76,7.84-1.51,17.62.6,28.44,6.86C780,727.8,804.81,766.56,807,797.93c.65,9.32-.64,17-3.83,22.62-3,5.23-15,12.94-21.17,14.31C745.74,845.33,691.47,733.46,701.62,716.29Z" fill="#f2f4ff" fill-rule="evenodd"/>
                <g>
                  <path d="M751,828.64c-28.4-16.42-53.18-55.16-55.36-86.54s19.09-43.52,47.49-27.09,53.19,55.17,55.36,86.55S779.35,845.06,751,828.64Z" fill="#d1e7ff" fill-rule="evenodd"/>
                  <polygon points="764.87 749.45 772.4 753.22 738.95 804.13 709.43 760.35 719.15 764.15 734.74 778.96 764.87 749.45" fill="#fff" fill-rule="evenodd"/>
                </g>
              </g>
            </g>
            <g>
              <path d="M540.94,792.39c.07-26.2,18.63-36.8,41.45-23.62L881.65,940.34l0,275.12-19.77,11.13L581.14,1066.15C558.31,1053,539.88,1021,540,994.81Z" fill-rule="evenodd" opacity="0.5" fill="url(#linear-gradient-10)" style="mix-blend-mode: multiply"/>
              <g>
                <path d="M562.94,793.57c0-6.67-5.21-12.1-2.9-16.39,2.5-4.64,12.81-7.49,17.24-8.91,6.29-2,14.19-.8,22.77,4.15L949.6,974.16C970,986,986.53,1014.57,986.47,1038l-.88,180.14c0,11.49-4.05,19.63-10.53,23.55-4,2.4-15.12,6.79-20.58,5.84-3.84-.66-1.71-5.76-6-8.25L598.93,1037.57c-20.44-11.8-36.94-40.41-36.87-63.87Z" fill-rule="evenodd" fill="url(#linear-gradient-11)"/>
                <path d="M553.78,796.88c.06-23.46,16.68-33,37.11-21.15L940.44,977.47c20.41,11.78,36.93,40.4,36.87,63.86l-.88,180.13c-.07,23.46-16.7,32.94-37.11,21.15L589.77,1040.87c-20.44-11.8-36.94-40.41-36.87-63.86Z" fill="#fff" fill-rule="evenodd"/>
                <g>
                  <path d="M629.41,868.37c-32.69-18.87-59.23-3.71-59.34,33.81s26.27,83.27,58.95,102.14,59.23,3.71,59.33-33.85S662.06,887.22,629.41,868.37Z" fill-rule="evenodd" fill="url(#linear-gradient-12)"/>
                  <polygon points="603.98 885.19 604.05 953.13 662.66 957.92 603.98 885.19" fill="#fff" fill-rule="evenodd"/>
                </g>
                <g>
                  <path d="M698.75,920.14c0-4.82,3.42-6.71,7.62-4.22L944.5,1052.33c4.19,2.49,7.59,8.43,7.57,13.24v9.53c0,4.82-3.43,6.71-7.62,4.22L706.32,942.91c-4.2-2.49-7.59-8.43-7.57-13.24Z" fill="#44a7f7" fill-rule="evenodd" opacity="0.5"/>
                  <path d="M698.75,975.64c0-4.82,3.42-6.7,7.62-4.21l238.13,136.4c4.19,2.5,7.59,8.43,7.57,13.25v9.53c0,4.81-3.43,6.7-7.62,4.21L706.32,998.41c-4.2-2.49-7.59-8.42-7.57-13.24Z" fill="#6d6afd" fill-rule="evenodd" opacity="0.5"/>
                  <path d="M698.75,1029.32c0-4.81,3.42-6.7,7.62-4.21L944.5,1161.52c4.19,2.49,7.59,8.42,7.57,13.24v9.53c0,4.81-3.43,6.7-7.62,4.22L706.32,1052.09c-4.2-2.49-7.59-8.42-7.57-13.24Z" fill="#6d6afd" fill-rule="evenodd" opacity="0.5"/>
                </g>
              </g>
            </g>
            <g>
              <path d="M353.49,760.86l68.22,38.57c26.28,15.17,47.57,52,47.48,82.24l-1.13,135.72c-.09,30.21-21.51,42.42-47.8,27.24l-66.77-37.75Z" fill-rule="evenodd" opacity="0.5" fill="url(#linear-gradient-13)" style="mix-blend-mode: multiply"/>
              <g>
                <path d="M239.28,746.23c0-9.68-2.22-15.72,2-21,3.19-4,10.63-7.45,14.51-8.79,7.52-2.6,17.07-1.25,27.45,4.74L411,793.44c24.15,13.95,43.71,47.82,43.63,75.59l-1,118.28c0,8.61-1.82,19.63-8.42,25.67-4.7,4.3-12.95,8.61-19.07,9.11-6.29.51-8.73-5.3-16.43-9.75L281.87,940.1c-24.18-14-43.71-47.83-43.63-75.58Z" fill="#f2f4ff" fill-rule="evenodd"/>
                <path d="M232.29,750.34c.08-27.76,19.74-39,43.92-25L404,797.56c24.15,14,43.71,47.82,43.63,75.58l-1,118.28c-.08,27.76-19.77,39-43.92,25L274.88,944.21c-24.18-14-43.71-47.82-43.64-75.58Z" fill-rule="evenodd" fill="url(#linear-gradient-14)"/>
                <path d="M366.92,853.2l-.07,24.11,12,6.93c7.25,4.19,11.59,6.53,13.41,7.25,3.14,1.49,5.53,1.65,7.35.62s2.73-3.25,2.74-6.54a19.76,19.76,0,0,0-2.27-9.27,20.63,20.63,0,0,0-6.85-7.58c-1.82-1.21-7.06-4.4-15.78-9.44l-10.54-6.08ZM280,848.79l24.94,14.4-12.67-46L280,848.79Zm2.71-61.72,19.54,11.29L338.44,924,318.65,912.6l-7.9-28.43-36.53-21.09-7.55,19.51L247.12,871.3l35.59-84.23ZM403.12,938.91c1.62-1.3,2.54-3.74,2.55-7.52a21.23,21.23,0,0,0-1.93-9.07,27.12,27.12,0,0,0-5.66-8.1c-2.58-2.53-8-6.19-16.4-11.06l-14.88-8.59-.08,28.17,17.11,9.88c6.64,3.82,10.84,6.09,12.65,6.58,2.72,1.07,5,1,6.64-.29Zm17.18-13.78a42.88,42.88,0,0,1,4.3,18.24,24.25,24.25,0,0,1-2.9,12.31c-2,3.37-4.51,5.52-7.85,6.17-3.45.82-7.5.17-12.46-2.14-3-1.41-10.36-5.32-22.08-12.1l-31.09-17.94.29-104.6L385,846.13a157.5,157.5,0,0,1,16.07,10.31,48.6,48.6,0,0,1,9.62,9.89,59.09,59.09,0,0,1,6.89,12.82,35.43,35.43,0,0,1,2.83,13.7c0,5-1.28,8.77-3.52,11.48a10.17,10.17,0,0,1-9.33,3.77A55.66,55.66,0,0,1,420.3,925.13Z" fill="#fff" fill-rule="evenodd"/>
              </g>
            </g>
            <g>
              <path d="M442.52,1061.93c0-11,7.84-15.48,17.44-9.94,101.74,58.36,203.27,118.77,305,177.13,9.59,5.54,17.36,19,17.33,30l-.62,185.2c0,11-7.85,15.47-17.44,9.93-101.75-58.35-203.29-118.77-305-177.12-9.6-5.54-17.35-19-17.32-30Z" fill-rule="evenodd" opacity="0.5" fill="url(#linear-gradient-15)" style="mix-blend-mode: multiply"/>
              <path d="M434.88,1055l11.67-5.84c2.93-1.36,6.81-1,11.06,1.47,96.15,55.15,192.11,112.24,288.27,167.39,9.06,5.24,16.4,18,16.37,28.37l.47,156.05c0,4.35-1.31,7.63-3.48,9.57s-10.67,5.61-13.7,7.14C649.39,1364,554.11,1299.53,458,1244.39c-9.07-5.24-16.4-18-16.37-28.36Z" fill-rule="evenodd" fill="url(#linear-gradient-16)"/>
              <path d="M429.67,1065.7c0-10.42,7.41-14.63,16.48-9.39,96.15,55.15,192.11,112.24,288.27,167.39,9.06,5.24,16.4,18,16.37,28.37l.48,156c0,10.41-7.42,14.62-16.49,9.39-96.15-55.16-192.12-112.25-288.26-167.4-9.08-5.24-16.41-17.94-16.38-28.36Z" fill-rule="evenodd" fill="url(#linear-gradient-17)"/>
              <path d="M446.25,1084.35c0-4.31,3.07-6.06,6.83-3.89Q590.42,1159.22,727.7,1238a15,15,0,0,1,6.78,11.75l.2,84.83c0,4.32-3.08,6.06-6.83,3.9-91.55-52.52-183.07-98-274.61-150.53a15,15,0,0,1-6.79-11.76Z" fill-rule="evenodd" fill="url(#linear-gradient-18)"/>
              <path d="M456.61,1213.15c0-4.82,3.42-6.71,7.62-4.22l238.13,136.41c4.19,2.49,7.59,8.43,7.57,13.24v9.53c0,4.82-3.43,6.71-7.62,4.22L464.18,1235.92c-4.2-2.49-7.59-8.43-7.58-13.24Z" fill="#04c6df" fill-rule="evenodd" opacity="0.5"/>
            </g>
            <path d="M781,293.5a4.56,4.56,0,1,0,4.49-7.94l-2.35-1.33c-5.17-.47-6.14,7.85-2.14,9.27ZM809.29,299A4.56,4.56,0,1,0,804.8,307l15.87,9a4.56,4.56,0,1,0,4.5-7.94l-15.88-9ZM849,321.51a4.56,4.56,0,0,0-6.65,5.16,4.51,4.51,0,0,0,2.15,2.78l15.88,9a4.56,4.56,0,0,0,6.65-5.16,4.52,4.52,0,0,0-2.16-2.77l-15.87-9ZM888.68,344a4.56,4.56,0,0,0-6.65,5.16,4.52,4.52,0,0,0,2.16,2.77l15.87,9a4.56,4.56,0,1,0,4.5-7.94l-15.88-9Zm39.7,22.46a4.56,4.56,0,0,0-6.65,5.16,4.49,4.49,0,0,0,2.15,2.78l15.88,9a4.56,4.56,0,1,0,4.49-7.94l-15.87-9Zm39.69,22.47a4.56,4.56,0,1,0-4.49,7.94l15.87,9a4.56,4.56,0,0,0,6.65-5.16,4.51,4.51,0,0,0-2.15-2.78l-15.88-9Zm39.87,22.89a4.56,4.56,0,1,0-5.13,7.55,99,99,0,0,1,13.47,11c3.51,3.52,9.62-.58,7.21-5.41a5.13,5.13,0,0,0-.84-1.12,107.62,107.62,0,0,0-14.71-12.06Zm32.74,33.83c-3.41-4.83-10.55-.23-7.75,4.8,3.28,5.29,6.24,9.92,9.07,15.53a4.56,4.56,0,1,0,8.16-4.09,154.92,154.92,0,0,0-9.48-16.24Zm19.56,42.65c-1.22-4.92-8.69-4.36-9,1a4.94,4.94,0,0,0,.15,1.33,101,101,0,0,1,3,17.16,4.56,4.56,0,0,0,9.07.21,5,5,0,0,0,0-.95,111.15,111.15,0,0,0-3.3-18.73Zm3.45,46.49a4.56,4.56,0,0,0-9-1.12,5.29,5.29,0,0,0-.13,1.05l-.13,18.25a4.56,4.56,0,0,0,9,1.12,5.11,5.11,0,0,0,.13-1.05l.13-18.25Zm-.34,45.61a4.56,4.56,0,0,0-9-1.12,5.3,5.3,0,0,0-.13,1.06l-.13,18.24a4.57,4.57,0,0,0,9,1.13,5.3,5.3,0,0,0,.13-1.06l.13-18.25ZM1063,626a4.56,4.56,0,0,0-9-1.12,5.3,5.3,0,0,0-.13,1.06l-.13,18.24a4.57,4.57,0,0,0,9,1.13,5.3,5.3,0,0,0,.13-1.06L1063,626Zm-.34,45.61a4.56,4.56,0,0,0-9-1.12,5.3,5.3,0,0,0-.13,1.06l-.13,18.24a4.56,4.56,0,0,0,9,1.12,5.11,5.11,0,0,0,.13-1l.13-18.25Zm-1.8,46.48a4.57,4.57,0,0,0-8.49-3.13,4.64,4.64,0,0,0-.41,1.13,36.81,36.81,0,0,1-6.55,14.71,4.56,4.56,0,0,0,6.89,6l.31-.36a45.67,45.67,0,0,0,8.25-18.31Zm-35.65,31.49c5.29,0,6.34-7.68,1-9a4.66,4.66,0,0,0-1.06-.12,42.93,42.93,0,0,1-16-3.37,4.57,4.57,0,0,0-4.53,7.82,4.91,4.91,0,0,0,1.09.63,52,52,0,0,0,19.48,4Zm-44-17.46a4.56,4.56,0,0,0,5.8-6.85,4.45,4.45,0,0,0-1.21-1L970,715.05a4.56,4.56,0,0,0-5.81,6.85,4.64,4.64,0,0,0,1.22,1l15.77,9.18Zm-39.42-23a4.56,4.56,0,0,0,5.81-6.85,4.64,4.64,0,0,0-1.22-1l-18.55-10.95c-4-1.77-6.93,6.84-1.81,9.65Z" fill-rule="evenodd" fill="url(#linear-gradient-19)"/>
          </g>
          <g>
            <path d="M15.38,1437.83,178,1345.24c17.72-8.09,43.08-14.54,61.14-5.14,16.45,8.56,43.56,26.08,55.54,32.92,9.1,5.19,40.7,24.12,21,34.82-57.9,31.48-115.19,66.89-174,98.87-11.11,6-27.38,8.23-44.45,6.81s-34.44-6.36-48.15-14.34L20.24,1482.4C7.49,1475,.73,1466.2.06,1458.08-.6,1450.15,4.5,1442.8,15.38,1437.83Z" fill="#9e9bf5" fill-rule="evenodd" opacity="0.5" style="mix-blend-mode: multiply"/>
            <g>
              <g>
                <g>
                  <path d="M354.09,734.19l0-11.49-.4-108,5.74-2.73c32.75,18.94,61.35,63.65,63.86,99.84C426.57,758.72,384.64,759.73,354.09,734.19Z" fill-rule="evenodd" opacity="0.5" fill="url(#linear-gradient-20)" style="mix-blend-mode: multiply"/>
                  <g>
                    <path d="M309.45,615.64c3.45-5.84,14.83-10.45,21.56-11.75,7.84-1.52,17.62.6,28.44,6.85,28.39,16.41,53.18,55.18,55.35,86.55.65,9.32-.64,17-3.83,22.61-3,5.23-15,12.94-21.16,14.31C353.56,744.68,299.29,632.82,309.45,615.64Z" fill="#f2f4ff" fill-rule="evenodd"/>
                    <path d="M358.78,728c-28.41-16.43-53.19-55.16-55.36-86.55s19.08-43.51,47.48-27.09,53.19,55.18,55.36,86.55S387.17,744.41,358.78,728Z" fill="#a0d3fb" fill-rule="evenodd"/>
                  </g>
                </g>
                <path d="M379.2,673.28l-14.08-7.76a12.35,12.35,0,0,1-5.21-6.68l-5.4-17.1a12.14,12.14,0,0,0-5.27-6.72c-2.09-1.15-4.08-1-4.66,1.23l-3.23,12.33c-.53,2-2.38,2.48-4.69,1.21L322.61,642c-5.05-2.79-6.64,3.18-2.3,8.72l12,15.32c1.94,2.48,2.91,5.51,2.38,7.51l-3.29,12.25c-.89,3.39,2.28,8.52,5.55,10.32a4,4,0,0,0,3,.56l10.68-2.81a4.11,4.11,0,0,1,3,.58,10.65,10.65,0,0,1,3.16,2.82l12,15.36a10.82,10.82,0,0,0,3.14,2.83c3.25,1.8,5.9-.12,4.4-4.8l-5.43-17.1c-.89-2.79-.32-5,1.41-5.41L383,685.39C386.9,684.4,384.28,676.09,379.2,673.28Z" fill-rule="evenodd" fill="url(#linear-gradient-21)"/>
              </g>
              <g>
                <g>
                  <path d="M273.3,496.39c-1.21,2.56-2.37,5.14-3.64,7.67l-5.21,10.43c-1.11-5.11-5.19-7.07-8.33-4.49a9,9,0,0,0-2.53,3.4c-.5-1.39-4.45-4.53-9.79,3.05-3.33-.36-5.08,1-6.48,3.74a42.24,42.24,0,0,0-2.24,5.46,22.19,22.19,0,0,0-1.56,7.41c0,5,.25,10.47.11,16.48-.15,6.52-7.55,14.77-11.56,19.52l24.19,7.67c3.7-4.64,5.69-8,9.42-11.78s8.59-4.3,12.21-7.27c2-1.66,3.2-3.86,6.64-8.74,2.85-4,4.41-8.4,7.13-12.82,2.65-4.58,2.49-3.57,2.76-8.7.21-4,1.49-7.88,1.81-10.28-5-2.48-8.88,3.66-8.85,9.64-2.84,1.6-4.71,5.52-5.36,7.27-3.95-5.16-1.59-7.32,0-14a65.89,65.89,0,0,0,5.69-13.32c.78-2,1.55-4.16,2.38-6.44,1.12-3.72-.32-6.36-1.44-7.09C277.72,492.63,275.32,492.91,273.3,496.39Z" fill-rule="evenodd" fill="url(#linear-gradient-22)"/>
                  <path d="M283.38,516.62c-3.53.51-6,5.38-6,10.16-2.66,1.5-4.47,5-5.22,6.91,1.45-1.86,5.15-5.85,6.36-6.33.37-4.59,2-8.36,4.86-10.74Zm-18.48-3-.45.9a8.94,8.94,0,0,0-1.32-3.21c-.14,3.49-2.07,6-3.44,7.68a8.65,8.65,0,0,0,5.21-5.37Zm-11.35-.26a3,3,0,0,0-1.27-1.31,20.89,20.89,0,0,1-2.72,6.94,11.57,11.57,0,0,0,4-5.63Zm-9.64,3-.11.15a8.14,8.14,0,0,0-1.55,0,15.75,15.75,0,0,1-2.82,7.75C242,521.67,243.29,520,243.91,516.3Z" fill="#ff8978" fill-rule="evenodd"/>
                </g>
                <path d="M182,636.15c12.17-21.21,21.71-47.78,38.72-69.33,1.42-1.79,4.75-3.17,6-5.06q2.65-4.11,5.3-8.08c8,.14,17.77,4.25,24.49,11-1,2.84-1.89,5.66-2.82,8.48-1.07,3.27,1,10.28.06,13.56-8.39,29.47-20.41,50.26-32.79,77.32C204,685.84,112,819,92.8,777.16c-6.21-13.55-1.06-31.39,8-46,5-8.08,12-14.79,17.13-20.12C130.28,698.26,163.44,655.24,182,636.15Z" fill-rule="evenodd" fill="url(#linear-gradient-23)"/>
              </g>
              <g>
                <g>
                  <path d="M133.59,1390.69c2.7-.52,14.75-3.92,15.89-4.31,7.69-2.68,17.67-6.69,30.3-8.58,8.87-1.33,21.23,1.28,17.26,14.73-5.31,18-20.83,31.18-36.06,37.54-5.4,2.26-12.19,2.79-18.66,6-5,2.51-6.13,6.67-9.86,9.46-8.15,6.1-17.55,5.49-24.24,3.2-8-2.76-11-6.14-12.89-15.86-1.76-8.91-2-25,.2-31.35l.29,0c.34,6.15,3.73,10.12,11.25,11.56,10.25,2,28.62-7.92,26.92-18.77C133.8,1393.17,133.67,1391.94,133.59,1390.69Z" fill="#1c236c" fill-rule="evenodd"/>
                  <path d="M195.74,1381.7c4.21,5,1.47,13.38-1,18.64-6.62,14.35-20.77,25.22-33.8,30.66-5.4,2.26-12.09,3.53-18.57,6.78-5,2.51-6,6-9.76,8.8-8.15,6.1-18.11,5.68-24.81,3.39-7.58-2.6-10.29-6.85-12.18-15.5,1.92,4.36,4.84,7,10.14,8.79,6.69,2.3,16.65,2.72,24.8-3.38,3.73-2.79,4.74-6.29,9.76-8.81,6.48-3.24,14.1-4,19.51-6.21,15.22-6.36,31.68-17.75,37-35.77A8.69,8.69,0,0,0,195.74,1381.7Z" fill="#e5e5e5" fill-rule="evenodd"/>
                  <path d="M94.68,1373c1.22,9.58,2.28,15.32,1.25,25-.87,8.19,2.25,13.42,11.14,15.13,10.25,2,28.62-7.92,26.92-18.77-1.51-9.57.74-21.46,1.31-30.65Z" fill-rule="evenodd" fill="url(#linear-gradient-24)"/>
                  <path d="M139.15,1393.76a18,18,0,0,0,7,1c4.92,18.43-33.8,58.06-51.79,31.57-1-4.36-1.58-25,.25-29.58,1.23-3,3.49-3.12,7.17-2.06,7.84,2.27,10.25,12.57,15.63,13.62,6.41,1.25,10.47-3.36,12.82-8.33,2.52-5.34,1.8-11.32,3.12-14,1.49-3,4.26-1.18,3.77.22C136.57,1388,136.81,1392,139.15,1393.76Z" fill="#1c236c" fill-rule="evenodd"/>
                  <path d="M192.46,1382.45a5.8,5.8,0,0,1,4.24,3.55c.66,2.21,0,7.08,0,8.71,4.24-9.65-.07-14.71-4.16-16.31a8,8,0,0,0-3.6-.6c.93.56.92.94.89,1.41A3,3,0,0,0,192.46,1382.45Z" fill="#e5e5e5" fill-rule="evenodd"/>
                </g>
                <g>
                  <path d="M112.32,907.49c38-5.18,51.76,26.88,56.44,66.92,5.7,48.83,17.56,89.65,3.81,147-7.93,33.06-18.36,53.35-21.08,72.21-2.64,18.37-4.46,45.42-6,66.75-1.6,22.35-13.1,96.62-13.42,112.17-.68,15.62-26.85,23.45-38,10.32-3.55-26.18-11.8-112.92-10.42-136.79,2.1-36.52,12.19-52.24,16.16-89.08,4.07-37.86-7.07-79.14-11.14-117-14.93-28.24-13.29-50.31-5.35-69.83C92.51,947.62,104.26,939.11,112.32,907.49Z" fill-rule="evenodd" fill="url(#linear-gradient-25)"/>
                  <path d="M165.48,956.45a141.63,141.63,0,0,1,3.28,18c5.57,48.84,17.56,89.65,3.81,147-7.93,33.06-18.36,53.35-21.08,72.21-2.64,18.37-4.46,45.42-6,66.75-1.6,22.35-14,98.21-14.33,113.76-.34,8-4.7,12.78-12.62,14.75-3.17-50.88-5.67-96.06.48-143.53,4-31.11,12.83-63.88,14.73-87.67,4.19-52.54-7.89-94.08-29.61-110.92a34.57,34.57,0,0,0,29.26-1.81C129.9,1014.28,147.71,982.09,165.48,956.45Z" fill="#1e2353" fill-rule="evenodd" opacity="0.3" style="mix-blend-mode: multiply"/>
                  <path d="M135.77,1362.5c-.36,4.44-.93,8.64-1,10.91-.67,15.61-29.57,22.54-40.67,9.41-.4-2.94-1.65-8-2.15-12.33C101.63,1377.77,120,1383.3,135.77,1362.5Z" fill-rule="evenodd" fill="url(#linear-gradient-26)"/>
                </g>
              </g>
              <g>
                <g>
                  <path d="M160.19,1385.66c1.85-17.89,16.5-52.24,20-62.06l-35.35-18.19c-6,22.56-3.89,38.46-17.55,48.55Z" fill-rule="evenodd" fill="url(#linear-gradient-27)"/>
                  <path d="M153.64,1373.87c-6.13-6.43-2.42-10.7-4.76-21.25-1.17-5.26-4.48-8.95-7.63-10.07-5.61-2-7,2-11.28,4.89-5.62,3.72-8.83,3.43-12.58,8.75-15.73,4-17,18.08-13.24,32.19,3.45,13.09,7.16,14.38,7.4,21.27.08,2.26-.7,4.76-2,9-3.19,10.86,3.91,24,8.85,30.63,7.63,10.28,26.4,17.77,40.2,16.51,2.66-.25,3.95-2.7,4.18-5.94.69-9.76-3.36-26.46-4.53-37.31a87.75,87.75,0,0,1,1-20.32c1.69-10.8,4.69-22.19,4.19-27.67C162.89,1368.46,161.05,1381.62,153.64,1373.87Z" fill="#293288" fill-rule="evenodd"/>
                  <path d="M122.37,1355.56c-20.86,1-22.16,17.72-18.22,32.82,3.41,13.1,7.16,14.38,7.4,21.27.08,2.26-.7,4.76-2,9-3.19,10.86,3.91,24,8.85,30.63,7.63,10.28,26.4,17.77,40.2,16.51a4.22,4.22,0,0,0,3.23-2.16c1.43-2.29-2.64-15.32-4.29-18.46-3.51-6.67-7.92-14-10.5-24.22-1.91-7.55-.46-19.18-1.94-28C141.42,1370.79,138.36,1357.9,122.37,1355.56Z" fill="#fff" fill-rule="evenodd"/>
                  <path d="M102.18,1376.11a56.08,56.08,0,0,0,2,12.27c3.41,13.1,7.16,14.38,7.4,21.27.08,2.26-.7,4.76-2,9-3.19,10.86,3.91,24,8.85,30.63,7.63,10.28,26.4,17.77,40.2,16.51a3.8,3.8,0,0,0,1.89-.7c.21-2.22-.41-4.8-1.94-8.33-5.71-13.17-19.77-32-21.28-44.38-.72-6,.4-10.78.15-16.18-.44-9.32-2.34-18.4-8.21-26.3C121.07,1358.88,101.55,1355.62,102.18,1376.11Z" fill="#eaeaed" fill-rule="evenodd"/>
                </g>
                <g>
                  <path d="M193.12,1171.4c-4.16-35-16-69.16-26.76-102.34-50.65-30.74-42.91-81-21.58-115.9l53.87-18c5.46,8.71,9.55-17.65,13.31-11.8,8.3,12.9,24.54,51.48,30.9,74.36,13.11,47.21,17,92.29,11.9,151.69-.45,5.24-1.24,13.33-1.75,21.08,0,1.41-1,10.56-1.25,11.83-1.9,18-66.78,143.61-81.79,173.59-1.36-12.89-21.69-25.9-32.71-20.47,6.77-45.28,16-87.31,22.64-103.6C173.42,1198.5,184.38,1188.22,193.12,1171.4Z" fill-rule="evenodd" fill="url(#linear-gradient-28)"/>
                  <path d="M177.49,1343.1c-2.74,5.42-4.89,7.53-7.52,12.77-1.36-12.89-21.69-25.9-32.71-20.47.9-6,0-7.7,1-13.56C148.82,1317,177.22,1330.06,177.49,1343.1Z" fill-rule="evenodd" fill="url(#linear-gradient-29)"/>
                </g>
              </g>
              <path d="M223,940.25c-1.69-4.1-2.07-8-3.41-12.41,10.16-32.84-13.19-42.59,5.56-83.4,12.89-28.06,16.41-44.84,10.34-58.69-13.38-30.49-97.36-67.89-129.84-71.57-22.44-2.53-35.2,21.1-35,45.3.49,64.68,21.91,71.18,24.63,138.91.22,5.34,3.08,13.3,6.58,21,.18,4,.26,10.49.41,14.17C111.42,962.54,221.92,971.74,223,940.25Z" fill-rule="evenodd" fill="url(#linear-gradient-30)"/>
              <path d="M223,940.25c-1.4-3.39-1.9-6.66-2.79-10.18-21.16,19.2-64.35,12.88-88.64,3.43-2.44-23.84-6.37-33.78-1.36-48.53,25.88-12.15,47.35-23.58,61.48-36.56,25-23,27-50.87-10.23-96.35l3.42-8.4c-28.53-15.46-61.53-27.48-79.23-29.48-22.44-2.53-35.2,21.1-35,45.3.49,64.68,21.91,71.18,24.63,138.91.22,5.34,3.08,13.3,6.58,21,.18,4,.26,10.49.42,14.17C111.42,962.54,221.92,971.74,223,940.25Z" fill="#ff8fd5" fill-rule="evenodd" opacity="0.5" style="mix-blend-mode: multiply"/>
              <g>
                <path d="M383.84,706.22a17.59,17.59,0,0,0-1.08,5.14,41.27,41.27,0,0,0-2.48,7.79c-.82,4.11-.51,7.36-.63,12.83-.07,3.16.44,4.8,1.11,7.88-3.2,6.28-8.25,10.14-13,15.32l15.28,11.64c6.44-4.25,11.48-8.71,17-12.4,4.51-1.78,6.09-2.79,7.44-4.2,3.54-3.69,14-14.65,14.55-19,.66-4.78-.61-15.84-1.69-21.91-2.76-15.48-8.66-31.74-9.67-24.56-1.48,1.72-.27,15.7-1.2,17.78-3.62,4.16-5.34,5.87-9.87,10.83-2.81,1.6-4.66,3.27-6,3.64-1.56.42-2.42-.67-2.48-2-.06-1.53.93-4.25,1.73-8.25,0-6.63-1.64-10.39-5.19-10a3.51,3.51,0,0,0-3.33,3.1C384,701.37,384.1,703.51,383.84,706.22Z" fill-rule="evenodd" fill="url(#linear-gradient-31)"/>
                <path d="M226.92,768.58c21,3.24,64.58,29,92.58,41.52,15.61-22.25,36.1-48.92,48.74-57.9,1.45-1,5.15-3.12,6.29-4.51,1.83-2.25,3.62-4.55,5.35-6.94,7.9,1.1,19.34,11,19.19,15.62-1.28,2.33-2.57,4.76-3.89,7.28-.9,1.71-.57,5.48-1.1,7.41-4.29,15.58-27.93,51.58-38.94,67.63-6.37,9.28-8.61,14.73-12.92,17.5-6.92,4.44-16.21,2-34.09-2.48-15.05-3.78-63.66-12.25-86-24.05-15.77-8.32-27.86-23.68-21.6-40.94C204.53,777.66,213.4,766.49,226.92,768.58Z" fill-rule="evenodd" fill="url(#linear-gradient-32)"/>
              </g>
              <g>
                <g>
                  <g>
                    <path d="M124.94,731.26c-2.49,10.55,36,21.93,49.18,16.2l.27-2.56c3.4-15.72,6.74-29.08,9.09-40.12,6.13,2.61,21.18,3.37,22.51,1.27-40.56-32.4-88-56.35-94.1-40,4,11.85,14.41,20.27,19.6,28,1.38,2.05,2.46,6.32,2.72,10.6h0C132.71,713,129.54,721,124.94,731.26Z" fill-rule="evenodd" fill="url(#linear-gradient-33)"/>
                    <path d="M205.77,706.23c-3.5,2.29-28.33-6-30.34-5.87-19.32.95-40.11-.62-43.94-6.31-5.19-7.72-15.58-16.14-19.6-28-6.42-18.94-5.17-40.3,12.15-55.16,30.1-25.86,77.33-6.91,84.1,22.37,2.77,12-.67,13-.1,21.05,1.05,14.82,2.73,9.24,1.36,32.69C208.88,695.94,208.09,704.72,205.77,706.23Z" fill="#ffa698" fill-rule="evenodd"/>
                    <path d="M130.5,717.14c1.05,9.59,28.05,16.35,44.42,12.53,1.75-.41,2.84-.74,3.47-1.85,2.41,1.32,9,10.79,9.71,15.5C174,757,129.23,749,123.8,733,122.5,729.16,121.31,722,130.5,717.14Z" fill="#ff89db" fill-rule="evenodd"/>
                  </g>
                  <path d="M56,685.35c-25.74,21.52-40.24,60.29-28.53,82.27C38.06,787.55,64,799.28,56,811.89c-6.58,10.43-22.08,20.89-3.64,37.72,9.49,8.67,32.67,31.93,80,19.88,46.12-11.74,94.52-51.58,55.66-95.15-40.89-45.84-17-56,6.49-92,12.4-19.07,23.49-56.74,12.86-70.75-18.22-24-30.32-6.72-47.86-15.21-33.45-16.2-60.88-4.62-76.61,20.71C68.79,639.73,76.44,668.23,56,685.35Z" fill-rule="evenodd" fill="url(#linear-gradient-34)"/>
                </g>
                <g style="mix-blend-mode: screen">
                  <path d="M166.74,603.05c-21.65-14.61-47.36-17.81-68.15-.86-21.3,17.35-28,53.2-20.08,85,3.75,15,36.65,20.56,62.86,2C170.69,668.44,192.23,621.49,166.74,603.05Z" fill-rule="evenodd" fill="url(#linear-gradient-35)"/>
                  <path d="M173.31,599.65c21.68,39.45,1.5,69.57-21.77,100.7l4.54,24C181.49,695.8,247,604.85,173.31,599.65Z" fill-rule="evenodd" fill="url(#linear-gradient-36)"/>
                </g>
              </g>
            </g>
          </g>
        </g>
      </g>
    </g>
  </g>
</svg>
