<svg xmlns="http://www.w3.org/2000/svg" viewBox="0 0 160.88 173.19">
  <title>logoPlaceholder_1</title>
  <g id="Layer_2" data-name="Layer 2">
    <g id="OBJECTS">
      <g>
        <g>
          <g>
            <path d="M30.53,17.24c-8,9.5-2.91,24.38-4.45,34.67s-7.72,14.42-7.72,14.42,6.2,4.13,7.72,14.42-3.5,25.16,4.45,34.67a16,16,0,0,0,8.62,5.36,6,6,0,0,1,4.51,5.83h0a6,6,0,0,1-6.6,6c-20-2.28-26.07-15.75-25-32.92.87-14.22-1.37-21.62-5.4-24.44A10,10,0,0,1,2,67.13v-1.6a10,10,0,0,1,4.59-8.14c4-2.81,6.27-10.22,5.4-24.43-1-17.17,5-30.65,25-32.92a6,6,0,0,1,6.6,6h0a6,6,0,0,1-4.51,5.83A16,16,0,0,0,30.53,17.24Z" fill="#fff"/>
            <path d="M130.85,17.24c7.94,9.5,2.91,24.38,4.44,34.67S143,66.33,143,66.33s-6.2,4.13-7.72,14.42,3.5,25.16-4.44,34.67a16,16,0,0,1-8.63,5.36,6,6,0,0,0-4.5,5.83h0a6,6,0,0,0,6.59,6c20-2.28,26.08-15.75,25-32.92-.87-14.22,1.37-21.62,5.41-24.44a10,10,0,0,0,4.59-8.13v-1.6a10,10,0,0,0-4.59-8.14c-4-2.81-6.28-10.22-5.41-24.43,1-17.17-5-30.65-25-32.92a6,6,0,0,0-6.59,6h0a6,6,0,0,0,4.5,5.83A16,16,0,0,1,130.85,17.24Z" fill="#fff"/>
          </g>
          <g>
            <path d="M69.91,49.58A16.61,16.61,0,1,1,53.3,33,16.62,16.62,0,0,1,69.91,49.58Z" fill="#f8866f"/>
            <path d="M124.69,49.58A16.62,16.62,0,1,1,108.07,33,16.62,16.62,0,0,1,124.69,49.58Z" fill="#f8866f"/>
          </g>
          <path d="M65.61,51.07S68.4,39,80.69,39s15.07,12,15.07,12" fill="none" stroke="#f8866f" stroke-miterlimit="10" stroke-width="3"/>
          <path d="M94.64,90.62s-2.59,9.06-14,9.06-14-9.06-14-9.06" fill="none" stroke="#f8866f" stroke-linecap="round" stroke-miterlimit="10" stroke-width="4"/>
        </g>
        <g>
          <g>
            <path d="M16,167.29a1,1,0,0,1,.37.07.89.89,0,0,1,.34.23l2,2.12a8.27,8.27,0,0,1-3.31,2.6,11.51,11.51,0,0,1-4.71.88,11.26,11.26,0,0,1-4.46-.84A9.61,9.61,0,0,1,2.85,170a10.23,10.23,0,0,1-2.11-3.54A13.11,13.11,0,0,1,0,162a12.29,12.29,0,0,1,.8-4.5A10.41,10.41,0,0,1,3,154a10.2,10.2,0,0,1,3.46-2.31,11.57,11.57,0,0,1,4.43-.83,11.49,11.49,0,0,1,2.32.22,10.65,10.65,0,0,1,2,.6,9.15,9.15,0,0,1,3.16,2.09L16.72,156a2.4,2.4,0,0,1-.39.39,1.08,1.08,0,0,1-.64.17,1.13,1.13,0,0,1-.51-.12,4.79,4.79,0,0,1-.51-.3l-.59-.37a5.53,5.53,0,0,0-.77-.38,6.8,6.8,0,0,0-1-.29,7.13,7.13,0,0,0-1.39-.12,5.64,5.64,0,0,0-2.31.47,5.05,5.05,0,0,0-1.8,1.36A6.19,6.19,0,0,0,5.61,159a9.61,9.61,0,0,0-.41,3,9.11,9.11,0,0,0,.45,3,6.7,6.7,0,0,0,1.25,2.2,5.28,5.28,0,0,0,1.84,1.36A5.5,5.5,0,0,0,11,169a10,10,0,0,0,1.27-.07,5.68,5.68,0,0,0,1.06-.22,4.89,4.89,0,0,0,.93-.42,6.28,6.28,0,0,0,.89-.67,1.62,1.62,0,0,1,.39-.25A.94.94,0,0,1,16,167.29Z" fill="#f8866f"/>
            <path d="M41.87,162a11.65,11.65,0,0,1-.82,4.41,10.44,10.44,0,0,1-5.88,5.92,12.22,12.22,0,0,1-4.65.85,12.24,12.24,0,0,1-4.66-.85A10.45,10.45,0,0,1,20,166.42a12.3,12.3,0,0,1,0-8.83,10.42,10.42,0,0,1,5.91-5.9,13,13,0,0,1,9.31,0,10.86,10.86,0,0,1,3.58,2.37,10.47,10.47,0,0,1,2.3,3.54A11.69,11.69,0,0,1,41.87,162Zm-5.2,0a9.51,9.51,0,0,0-.42-2.93,6.3,6.3,0,0,0-1.2-2.2,5.26,5.26,0,0,0-1.93-1.38,7.34,7.34,0,0,0-5.22,0A5.13,5.13,0,0,0,26,156.88a6.16,6.16,0,0,0-1.21,2.2,10.43,10.43,0,0,0,0,5.86,6.08,6.08,0,0,0,1.21,2.2,5.13,5.13,0,0,0,1.94,1.38,7.48,7.48,0,0,0,5.22,0,5.26,5.26,0,0,0,1.93-1.38,6.21,6.21,0,0,0,1.2-2.2A9.46,9.46,0,0,0,36.67,162Z" fill="#f8866f"/>
            <path d="M64.71,162a11.52,11.52,0,0,1-.81,4.37,10.24,10.24,0,0,1-2.31,3.47A10.43,10.43,0,0,1,58,172.14a12.82,12.82,0,0,1-4.65.81h-8.5V151.07h8.5a12.62,12.62,0,0,1,4.65.83,10.56,10.56,0,0,1,3.58,2.28,10.3,10.3,0,0,1,2.31,3.46A11.56,11.56,0,0,1,64.71,162Zm-5.19,0a9.51,9.51,0,0,0-.42-2.93,6.41,6.41,0,0,0-1.21-2.22,5.42,5.42,0,0,0-1.93-1.4,6.66,6.66,0,0,0-2.6-.48H50v14.07h3.39a6.48,6.48,0,0,0,2.6-.49,5.19,5.19,0,0,0,1.93-1.4A6.28,6.28,0,0,0,59.1,165,9.57,9.57,0,0,0,59.52,162Z" fill="#f8866f"/>
            <path d="M72.82,155v5.1H79.7v3.76H72.82v5.21h9V173H67.72V151.07H81.81V155Z" fill="#f8866f"/>
          </g>
          <g>
            <path d="M106,151.43V173H104.5a1.28,1.28,0,0,1-.58-.12,1.5,1.5,0,0,1-.46-.4L91,156.21c0,.25,0,.49,0,.73s0,.47,0,.68V173H88.52V151.43H90l.33,0a.85.85,0,0,1,.24.08.69.69,0,0,1,.21.15,3,3,0,0,1,.23.25l12.45,16.2c0-.26,0-.51,0-.76s0-.47,0-.69V151.43Z" fill="#fff"/>
            <path d="M124.73,170.58l0,2.37H111.45V151.43h13.26v2.38H114.37V161h8.38v2.29h-8.38v7.34Z" fill="#fff"/>
            <path d="M144.7,173h-2.58a1.27,1.27,0,0,1-1.17-.61l-5.59-7.69a1.67,1.67,0,0,0-.55-.52,1.88,1.88,0,0,0-.9-.16H131.7v9h-2.9V151.43h6.08a13.09,13.09,0,0,1,3.53.42,6.72,6.72,0,0,1,2.46,1.19,4.84,4.84,0,0,1,1.43,1.88,6.32,6.32,0,0,1,.47,2.47,6.2,6.2,0,0,1-.36,2.14,5.62,5.62,0,0,1-1,1.78,6.3,6.3,0,0,1-1.66,1.34,8.32,8.32,0,0,1-2.23.84,2.89,2.89,0,0,1,1,.92Zm-9.94-11.1a7.52,7.52,0,0,0,2.23-.3,4.64,4.64,0,0,0,1.62-.87,3.64,3.64,0,0,0,1-1.35,4.37,4.37,0,0,0,.33-1.73,3.42,3.42,0,0,0-1.26-2.89,6.15,6.15,0,0,0-3.79-1H131.7v8.12Z" fill="#fff"/>
            <path d="M150.53,153.81v7.52h8.85v2.37h-8.85V173h-2.91V151.43h13.26v2.38Z" fill="#fff"/>
          </g>
        </g>
      </g>
    </g>
  </g>
</svg>
